<svg xmlns="http://www.w3.org/2000/svg" xmlns:xlink="http://www.w3.org/1999/xlink" width="500" zoomAndPan="magnify" viewBox="0 0 375 374.999991" height="500" preserveAspectRatio="xMidYMid meet" version="1.0"><defs><clipPath id="f0ec91c772"><path d="M 187.5 0 C 83.945312 0 0 83.945312 0 187.5 C 0 291.054688 83.945312 375 187.5 375 C 291.054688 375 375 291.054688 375 187.5 C 375 83.945312 291.054688 0 187.5 0 Z M 187.5 0 " clip-rule="nonzero"/></clipPath><clipPath id="9e9741ccff"><path d="M 0 0 L 375 0 L 375 375 L 0 375 Z M 0 0 " clip-rule="nonzero"/></clipPath><clipPath id="2e49919852"><path d="M 187.5 0 C 83.945312 0 0 83.945312 0 187.5 C 0 291.054688 83.945312 375 187.5 375 C 291.054688 375 375 291.054688 375 187.5 C 375 83.945312 291.054688 0 187.5 0 Z M 187.5 0 " clip-rule="nonzero"/></clipPath><clipPath id="76209ec1a4"><rect x="0" width="375" y="0" height="375"/></clipPath><clipPath id="2f2aab9509"><path d="M 153 346 L 223 346 L 223 364.527344 L 153 364.527344 Z M 153 346 " clip-rule="nonzero"/></clipPath><clipPath id="0c66affdfb"><path d="M 18.933594 172 L 64 172 L 64 186 L 18.933594 186 Z M 18.933594 172 " clip-rule="nonzero"/></clipPath><clipPath id="30b4a8960c"><path d="M 312 172 L 356.433594 172 L 356.433594 186 L 312 186 Z M 312 172 " clip-rule="nonzero"/></clipPath><clipPath id="ca7208872f"><path d="M 181 10.527344 L 195 10.527344 L 195 55 L 181 55 Z M 181 10.527344 " clip-rule="nonzero"/></clipPath></defs><rect x="-37.5" width="450" fill="#ffffff" y="-37.499999" height="449.999989" fill-opacity="1"/><rect x="-37.5" width="450" fill="#000000" y="-37.499999" height="449.999989" fill-opacity="1"/><g clip-path="url(#f0ec91c772)"><g transform="matrix(1, 0, 0, 1, 0, 0)"><g clip-path="url(#76209ec1a4)"><g clip-path="url(#9e9741ccff)"><g clip-path="url(#2e49919852)"><rect x="-82.5" width="540" fill="#ffffff" height="539.999987" y="-82.499998" fill-opacity="1"/></g></g></g></g></g><path fill="#000000" d="M 157.222656 198.050781 C 149.824219 195.109375 141.4375 198.714844 138.492188 206.105469 C 135.546875 213.496094 139.15625 221.871094 146.554688 224.816406 C 153.949219 227.761719 162.335938 224.152344 165.28125 216.761719 C 168.226562 209.371094 164.617188 200.996094 157.222656 198.050781 Z M 157.222656 198.050781 " fill-opacity="1" fill-rule="nonzero"/><path fill="#000000" d="M 146.039062 299.738281 C 146.003906 299.898438 146.03125 300.046875 146.039062 300.214844 L 146.039062 314.941406 L 229.328125 314.941406 C 229.328125 314.941406 229.328125 300.214844 229.328125 300.214844 C 229.335938 300.046875 229.363281 299.898438 229.371094 299.730469 C 229.328125 299.738281 146.039062 299.738281 146.039062 299.738281 Z M 146.039062 299.738281 " fill-opacity="1" fill-rule="nonzero"/><g clip-path="url(#2f2aab9509)"><path fill="#000000" d="M 187.683594 364.4375 C 202.128906 364.4375 214.761719 357.1875 222.226562 346.160156 L 153.199219 346.160156 C 160.691406 357.1875 173.339844 364.4375 187.683594 364.4375 Z M 187.683594 364.4375 " fill-opacity="1" fill-rule="nonzero"/></g><path fill="#000000" d="M 208.1875 154.757812 C 212.265625 144.535156 207.273438 132.945312 197.039062 128.871094 C 186.804688 124.800781 175.207031 129.789062 171.128906 140.011719 C 167.054688 150.238281 172.046875 161.824219 182.28125 165.894531 C 192.515625 169.96875 204.113281 164.980469 208.1875 154.757812 Z M 208.1875 154.757812 " fill-opacity="1" fill-rule="nonzero"/><path fill="#000000" d="M 224.363281 201.929688 C 216.964844 198.988281 208.578125 202.59375 205.632812 209.984375 C 202.6875 217.375 206.296875 225.753906 213.695312 228.695312 C 221.089844 231.640625 229.476562 228.035156 232.421875 220.644531 C 235.367188 213.25 231.761719 204.875 224.363281 201.933594 Z M 224.363281 201.929688 " fill-opacity="1" fill-rule="nonzero"/><path fill="#000000" d="M 146.042969 322.949219 C 146.058594 328.390625 147.140625 333.574219 149.058594 338.335938 C 149.359375 338.261719 149.644531 338.152344 149.96875 338.152344 L 225.398438 338.152344 C 225.734375 338.152344 226.03125 338.265625 226.34375 338.339844 C 228.25 333.578125 229.328125 328.394531 229.328125 322.949219 Z M 146.042969 322.949219 " fill-opacity="1" fill-rule="nonzero"/><path fill="#000000" d="M 281.320312 173.851562 C 278.414062 124.910156 236.765625 87.210938 187.691406 87.210938 C 138.617188 87.210938 96.953125 124.910156 94.046875 173.851562 C 92.785156 195.117188 97.539062 210.164062 103.707031 223.847656 C 111.1875 240.445312 127.40625 258.714844 133.945312 268.71875 C 137.765625 274.5625 142.859375 281.523438 145.007812 291.9375 C 145.34375 291.84375 145.671875 291.730469 146.039062 291.730469 L 229.328125 291.730469 C 229.695312 291.730469 230.023438 291.84375 230.359375 291.9375 C 232.507812 281.523438 237.601562 274.5625 241.421875 268.71875 C 247.960938 258.714844 264.179688 240.445312 271.660156 223.847656 C 277.824219 210.164062 282.582031 195.117188 281.320312 173.851562 Z M 183.210938 215.128906 C 183.078125 216.28125 182.152344 217.1875 181 217.324219 L 176.949219 217.808594 C 175.949219 217.925781 175.121094 218.613281 174.785156 219.5625 C 174.683594 219.847656 174.578125 220.128906 174.464844 220.414062 C 174.351562 220.699219 174.230469 220.980469 174.109375 221.257812 C 173.703125 222.175781 173.828125 223.246094 174.472656 224.015625 L 177.082031 227.148438 C 177.828125 228.042969 177.875 229.335938 177.179688 230.265625 C 176.511719 231.160156 175.800781 232.011719 175.050781 232.820312 C 174.261719 233.671875 172.984375 233.859375 171.972656 233.292969 L 168.40625 231.304688 C 167.535156 230.816406 166.46875 230.875 165.648438 231.441406 C 165.132812 231.792969 164.601562 232.128906 164.0625 232.441406 C 163.199219 232.941406 162.691406 233.878906 162.753906 234.871094 L 163.023438 238.9375 C 163.101562 240.09375 162.378906 241.167969 161.273438 241.511719 C 160.214844 241.839844 159.136719 242.117188 158.046875 242.332031 C 156.90625 242.558594 155.757812 241.964844 155.273438 240.910156 L 153.5625 237.210938 C 153.144531 236.308594 152.246094 235.726562 151.25 235.703125 C 150.625 235.6875 150 235.648438 149.375 235.582031 C 148.382812 235.480469 147.421875 235.941406 146.890625 236.78125 L 144.714844 240.226562 C 144.097656 241.207031 142.890625 241.652344 141.789062 241.28125 C 141.265625 241.105469 140.742188 240.914062 140.21875 240.707031 C 139.699219 240.5 139.183594 240.277344 138.683594 240.046875 C 137.628906 239.558594 137.058594 238.40625 137.285156 237.269531 L 138.078125 233.277344 C 138.269531 232.300781 137.886719 231.304688 137.097656 230.699219 C 136.597656 230.316406 136.113281 229.914062 135.652344 229.5 C 134.910156 228.832031 133.859375 228.632812 132.933594 229.003906 L 129.148438 230.515625 C 128.070312 230.949219 126.824219 230.59375 126.152344 229.644531 C 125.511719 228.738281 124.917969 227.800781 124.375 226.832031 C 123.808594 225.820312 124.023438 224.546875 124.875 223.757812 L 127.867188 220.992188 C 128.597656 220.316406 128.871094 219.285156 128.589844 218.332031 C 128.414062 217.730469 128.257812 217.125 128.128906 216.511719 C 127.917969 215.539062 127.183594 214.761719 126.21875 214.519531 L 122.257812 213.519531 C 121.132812 213.234375 120.335938 212.21875 120.347656 211.058594 C 120.363281 209.957031 120.429688 208.847656 120.5625 207.742188 C 120.699219 206.585938 121.621094 205.679688 122.773438 205.542969 L 126.824219 205.0625 C 127.824219 204.941406 128.652344 204.253906 128.988281 203.308594 C 129.089844 203.023438 129.199219 202.738281 129.3125 202.453125 C 129.425781 202.167969 129.542969 201.886719 129.664062 201.609375 C 130.074219 200.691406 129.945312 199.625 129.300781 198.851562 L 126.691406 195.71875 C 125.949219 194.828125 125.902344 193.535156 126.597656 192.605469 C 127.265625 191.710938 127.976562 190.855469 128.726562 190.046875 C 129.515625 189.199219 130.792969 189.007812 131.804688 189.574219 L 135.367188 191.566406 C 136.238281 192.050781 137.304688 191.992188 138.125 191.429688 C 138.644531 191.074219 139.171875 190.738281 139.714844 190.425781 C 140.574219 189.929688 141.085938 188.992188 141.019531 187.996094 L 140.75 183.929688 C 140.671875 182.773438 141.394531 181.703125 142.503906 181.355469 C 143.5625 181.027344 144.636719 180.753906 145.726562 180.535156 C 146.867188 180.308594 148.015625 180.90625 148.503906 181.960938 L 150.210938 185.65625 C 150.628906 186.5625 151.527344 187.140625 152.523438 187.164062 C 153.148438 187.179688 153.773438 187.222656 154.402344 187.285156 C 155.390625 187.386719 156.355469 186.929688 156.886719 186.089844 L 159.058594 182.640625 C 159.675781 181.664062 160.886719 181.21875 161.984375 181.585938 C 162.511719 181.761719 163.035156 181.953125 163.554688 182.160156 C 164.078125 182.367188 164.589844 182.589844 165.09375 182.824219 C 166.144531 183.308594 166.714844 184.464844 166.492188 185.597656 L 165.699219 189.59375 C 165.503906 190.570312 165.890625 191.5625 166.679688 192.171875 C 167.175781 192.554688 167.660156 192.953125 168.125 193.371094 C 168.863281 194.039062 169.914062 194.234375 170.84375 193.863281 L 174.628906 192.351562 C 175.707031 191.921875 176.949219 192.277344 177.621094 193.222656 C 178.265625 194.132812 178.859375 195.070312 179.398438 196.035156 C 179.96875 197.046875 179.753906 198.320312 178.902344 199.109375 L 175.90625 201.878906 C 175.175781 202.554688 174.902344 203.585938 175.183594 204.539062 C 175.363281 205.136719 175.515625 205.746094 175.648438 206.355469 C 175.855469 207.332031 176.589844 208.105469 177.554688 208.347656 L 181.515625 209.351562 C 182.640625 209.636719 183.4375 210.648438 183.425781 211.808594 C 183.414062 212.910156 183.34375 214.019531 183.210938 215.128906 Z M 182.746094 182.449219 L 179.738281 187.214844 C 178.882812 188.570312 177.210938 189.183594 175.691406 188.675781 C 174.964844 188.429688 174.238281 188.167969 173.519531 187.878906 C 172.796875 187.59375 172.089844 187.285156 171.394531 186.964844 C 169.9375 186.289062 169.148438 184.695312 169.457031 183.125 L 170.554688 177.597656 C 170.824219 176.25 170.292969 174.871094 169.199219 174.03125 C 168.507812 173.503906 167.839844 172.949219 167.199219 172.371094 C 166.175781 171.449219 164.722656 171.179688 163.4375 171.691406 L 158.203125 173.78125 C 156.710938 174.375 154.988281 173.886719 154.0625 172.574219 C 153.171875 171.320312 152.351562 170.023438 151.601562 168.6875 C 150.816406 167.285156 151.113281 165.523438 152.292969 164.433594 L 156.433594 160.605469 C 157.445312 159.667969 157.824219 158.242188 157.433594 156.925781 C 157.1875 156.09375 156.972656 155.253906 156.792969 154.410156 C 156.503906 153.0625 155.488281 151.988281 154.152344 151.652344 L 148.675781 150.265625 C 147.117188 149.871094 146.015625 148.46875 146.03125 146.867188 C 146.050781 145.339844 146.144531 143.808594 146.328125 142.273438 C 146.515625 140.679688 147.789062 139.425781 149.386719 139.234375 L 154.992188 138.570312 C 156.375 138.40625 157.519531 137.453125 157.984375 136.144531 C 158.125 135.746094 158.273438 135.355469 158.429688 134.960938 C 158.585938 134.566406 158.75 134.179688 158.917969 133.796875 C 159.484375 132.523438 159.304688 131.046875 158.414062 129.976562 L 154.804688 125.644531 C 153.773438 124.410156 153.710938 122.625 154.671875 121.335938 C 155.597656 120.097656 156.582031 118.917969 157.617188 117.800781 C 158.710938 116.625 160.476562 116.363281 161.875 117.144531 L 166.808594 119.898438 C 168.011719 120.574219 169.488281 120.492188 170.625 119.710938 C 171.335938 119.222656 172.070312 118.757812 172.816406 118.324219 C 174.011719 117.632812 174.714844 116.339844 174.625 114.964844 L 174.253906 109.339844 C 174.144531 107.738281 175.144531 106.257812 176.675781 105.777344 C 178.140625 105.320312 179.628906 104.945312 181.140625 104.644531 C 182.714844 104.328125 184.300781 105.152344 184.976562 106.613281 L 187.339844 111.726562 C 187.917969 112.976562 189.160156 113.777344 190.542969 113.8125 C 191.40625 113.835938 192.269531 113.890625 193.136719 113.980469 C 194.507812 114.121094 195.839844 113.488281 196.574219 112.324219 L 199.578125 107.558594 C 200.433594 106.203125 202.109375 105.585938 203.628906 106.097656 C 204.355469 106.339844 205.078125 106.605469 205.800781 106.890625 C 206.523438 107.179688 207.230469 107.484375 207.925781 107.804688 C 209.378906 108.480469 210.171875 110.074219 209.859375 111.648438 L 208.765625 117.171875 C 208.496094 118.523438 209.027344 119.898438 210.121094 120.738281 C 210.8125 121.265625 211.476562 121.820312 212.121094 122.398438 C 213.144531 123.320312 214.597656 123.589844 215.878906 123.078125 L 221.117188 120.988281 C 222.609375 120.394531 224.328125 120.882812 225.257812 122.195312 C 226.148438 123.449219 226.96875 124.746094 227.71875 126.085938 C 228.503906 127.484375 228.207031 129.246094 227.027344 130.335938 L 222.886719 134.164062 C 221.875 135.101562 221.496094 136.527344 221.886719 137.847656 C 222.132812 138.675781 222.347656 139.515625 222.527344 140.363281 C 222.816406 141.707031 223.832031 142.777344 225.167969 143.117188 L 230.644531 144.503906 C 232.203125 144.898438 233.304688 146.300781 233.289062 147.902344 C 233.269531 149.429688 233.175781 150.960938 232.992188 152.496094 C 232.804688 154.089844 231.53125 155.34375 229.933594 155.535156 L 224.328125 156.199219 C 222.945312 156.367188 221.800781 157.316406 221.335938 158.628906 C 221.195312 159.023438 221.046875 159.417969 220.890625 159.808594 C 220.734375 160.203125 220.570312 160.589844 220.402344 160.972656 C 219.835938 162.246094 220.015625 163.722656 220.90625 164.792969 L 224.515625 169.125 C 225.546875 170.359375 225.609375 172.144531 224.648438 173.433594 C 223.722656 174.671875 222.738281 175.851562 221.699219 176.96875 C 220.609375 178.144531 218.84375 178.40625 217.445312 177.625 L 212.511719 174.867188 C 211.308594 174.195312 209.832031 174.277344 208.699219 175.058594 C 207.984375 175.550781 207.25 176.011719 206.503906 176.445312 C 205.308594 177.136719 204.605469 178.429688 204.695312 179.804688 L 205.066406 185.429688 C 205.175781 187.03125 204.175781 188.511719 202.644531 188.992188 C 201.179688 189.449219 199.691406 189.824219 198.183594 190.125 C 196.605469 190.441406 195.019531 189.617188 194.34375 188.15625 L 191.980469 183.042969 C 191.402344 181.792969 190.160156 180.992188 188.777344 180.957031 C 187.914062 180.933594 187.050781 180.878906 186.183594 180.789062 C 184.816406 180.648438 183.480469 181.28125 182.746094 182.445312 Z M 250.351562 219.007812 C 250.214844 220.160156 249.292969 221.066406 248.140625 221.203125 L 244.089844 221.6875 C 243.089844 221.804688 242.261719 222.492188 241.925781 223.441406 C 241.824219 223.726562 241.714844 224.011719 241.605469 224.292969 C 241.492188 224.578125 241.371094 224.859375 241.25 225.136719 C 240.839844 226.054688 240.96875 227.125 241.613281 227.894531 L 244.222656 231.027344 C 244.96875 231.921875 245.015625 233.210938 244.320312 234.144531 C 243.652344 235.039062 242.941406 235.890625 242.191406 236.699219 C 241.402344 237.550781 240.125 237.738281 239.113281 237.171875 L 235.546875 235.179688 C 234.675781 234.695312 233.609375 234.753906 232.789062 235.320312 C 232.273438 235.671875 231.742188 236.007812 231.203125 236.320312 C 230.339844 236.820312 229.832031 237.757812 229.894531 238.75 L 230.164062 242.816406 C 230.242188 243.972656 229.519531 245.046875 228.414062 245.390625 C 227.355469 245.71875 226.277344 245.992188 225.1875 246.210938 C 224.046875 246.4375 222.898438 245.84375 222.414062 244.789062 L 220.703125 241.09375 C 220.285156 240.1875 219.386719 239.609375 218.390625 239.582031 C 217.765625 239.566406 217.140625 239.527344 216.515625 239.460938 C 215.523438 239.359375 214.5625 239.820312 214.03125 240.660156 L 211.855469 244.105469 C 211.238281 245.085938 210.03125 245.527344 208.929688 245.160156 C 208.40625 244.984375 207.882812 244.792969 207.359375 244.585938 C 206.839844 244.378906 206.328125 244.160156 205.824219 243.925781 C 204.773438 243.4375 204.199219 242.285156 204.425781 241.148438 L 205.21875 237.15625 C 205.410156 236.179688 205.027344 235.183594 204.238281 234.578125 C 203.738281 234.195312 203.253906 233.792969 202.792969 233.378906 C 202.050781 232.710938 201 232.515625 200.074219 232.882812 L 196.289062 234.394531 C 195.210938 234.828125 193.964844 234.472656 193.292969 233.523438 C 192.652344 232.617188 192.058594 231.679688 191.515625 230.710938 C 190.949219 229.699219 191.164062 228.425781 192.015625 227.640625 L 195.007812 224.871094 C 195.738281 224.195312 196.011719 223.164062 195.730469 222.210938 C 195.554688 221.609375 195.398438 221.003906 195.269531 220.390625 C 195.0625 219.417969 194.324219 218.644531 193.359375 218.398438 L 189.398438 217.394531 C 188.273438 217.109375 187.476562 216.097656 187.492188 214.9375 C 187.503906 213.835938 187.574219 212.726562 187.703125 211.621094 C 187.839844 210.46875 188.761719 209.558594 189.914062 209.421875 L 193.964844 208.941406 C 194.964844 208.820312 195.792969 208.136719 196.128906 207.1875 C 196.230469 206.902344 196.339844 206.617188 196.453125 206.332031 C 196.566406 206.046875 196.683594 205.765625 196.804688 205.488281 C 197.214844 204.570312 197.085938 203.503906 196.441406 202.730469 L 193.832031 199.597656 C 193.085938 198.707031 193.042969 197.414062 193.738281 196.484375 C 194.40625 195.589844 195.117188 194.734375 195.867188 193.925781 C 196.65625 193.078125 197.929688 192.886719 198.945312 193.453125 L 202.507812 195.445312 C 203.378906 195.929688 204.445312 195.875 205.265625 195.308594 C 205.785156 194.953125 206.3125 194.621094 206.855469 194.304688 C 207.714844 193.808594 208.226562 192.871094 208.160156 191.878906 L 207.890625 187.8125 C 207.8125 186.652344 208.535156 185.582031 209.644531 185.234375 C 210.703125 184.90625 211.777344 184.632812 212.867188 184.414062 C 214.007812 184.1875 215.15625 184.785156 215.644531 185.839844 L 217.351562 189.535156 C 217.769531 190.441406 218.667969 191.019531 219.664062 191.042969 C 220.289062 191.058594 220.914062 191.101562 221.542969 191.164062 C 222.53125 191.265625 223.496094 190.808594 224.027344 189.964844 L 226.199219 186.523438 C 226.816406 185.542969 228.027344 185.097656 229.125 185.464844 C 229.652344 185.640625 230.175781 185.832031 230.695312 186.039062 C 231.21875 186.246094 231.730469 186.46875 232.234375 186.699219 C 233.285156 187.1875 233.855469 188.34375 233.632812 189.480469 L 232.839844 193.472656 C 232.644531 194.449219 233.03125 195.445312 233.820312 196.050781 C 234.316406 196.433594 234.800781 196.832031 235.265625 197.25 C 236.003906 197.917969 237.054688 198.113281 237.984375 197.742188 L 241.769531 196.230469 C 242.847656 195.800781 244.089844 196.15625 244.761719 197.101562 C 245.40625 198.011719 246 198.949219 246.539062 199.914062 C 247.105469 200.925781 246.894531 202.199219 246.039062 202.988281 L 243.046875 205.757812 C 242.316406 206.433594 242.042969 207.460938 242.324219 208.417969 C 242.503906 209.015625 242.65625 209.621094 242.789062 210.234375 C 242.996094 211.210938 243.730469 211.984375 244.695312 212.226562 L 248.65625 213.230469 C 249.78125 213.515625 250.578125 214.527344 250.566406 215.6875 C 250.554688 216.789062 250.484375 217.898438 250.355469 219.007812 Z M 250.351562 219.007812 " fill-opacity="1" fill-rule="nonzero"/><g clip-path="url(#0c66affdfb)"><path fill="#000000" d="M 56.617188 172.519531 L 25.617188 172.519531 C 21.925781 172.519531 18.933594 175.507812 18.933594 179.195312 C 18.933594 182.882812 21.925781 185.871094 25.617188 185.871094 L 56.617188 185.871094 C 60.308594 185.871094 63.300781 182.882812 63.300781 179.195312 C 63.300781 175.507812 60.308594 172.519531 56.617188 172.519531 Z M 56.617188 172.519531 " fill-opacity="1" fill-rule="nonzero"/></g><g clip-path="url(#30b4a8960c)"><path fill="#000000" d="M 349.75 172.519531 L 318.75 172.519531 C 315.058594 172.519531 312.066406 175.507812 312.066406 179.195312 C 312.066406 182.882812 315.058594 185.871094 318.75 185.871094 L 349.75 185.871094 C 353.441406 185.871094 356.433594 182.882812 356.433594 179.195312 C 356.433594 175.507812 353.441406 172.519531 349.75 172.519531 Z M 349.75 172.519531 " fill-opacity="1" fill-rule="nonzero"/></g><g clip-path="url(#ca7208872f)"><path fill="#000000" d="M 187.683594 54.929688 C 191.371094 54.929688 194.367188 51.941406 194.367188 48.253906 L 194.367188 17.28125 C 194.367188 13.59375 191.371094 10.605469 187.683594 10.605469 C 183.992188 10.605469 181 13.59375 181 17.28125 L 181 48.253906 C 181 51.941406 183.992188 54.929688 187.683594 54.929688 Z M 187.683594 54.929688 " fill-opacity="1" fill-rule="nonzero"/></g><path fill="#000000" d="M 90.277344 267.0625 L 68.359375 288.960938 C 65.75 291.570312 65.75 295.796875 68.359375 298.40625 C 69.664062 299.710938 71.375 300.359375 73.085938 300.359375 C 74.796875 300.359375 76.507812 299.710938 77.8125 298.40625 L 99.730469 276.507812 C 102.339844 273.898438 102.339844 269.667969 99.730469 267.0625 C 97.121094 264.453125 92.886719 264.453125 90.277344 267.0625 Z M 90.277344 267.0625 " fill-opacity="1" fill-rule="nonzero"/><path fill="#000000" d="M 297.554688 59.984375 L 275.636719 81.882812 C 273.023438 84.488281 273.023438 88.71875 275.636719 91.328125 C 276.941406 92.628906 278.652344 93.28125 280.363281 93.28125 C 282.074219 93.28125 283.785156 92.628906 285.089844 91.328125 L 307.007812 69.425781 C 309.617188 66.820312 309.617188 62.589844 307.007812 59.984375 C 304.394531 57.375 300.164062 57.375 297.554688 59.984375 Z M 297.554688 59.984375 " fill-opacity="1" fill-rule="nonzero"/><path fill="#000000" d="M 90.277344 91.328125 C 91.582031 92.628906 93.292969 93.28125 95.003906 93.28125 C 96.714844 93.28125 98.425781 92.628906 99.730469 91.328125 C 102.339844 88.71875 102.339844 84.488281 99.730469 81.882812 L 77.8125 59.984375 C 75.203125 57.375 70.96875 57.375 68.359375 59.984375 C 65.75 62.589844 65.75 66.820312 68.359375 69.425781 Z M 90.277344 91.328125 " fill-opacity="1" fill-rule="nonzero"/><path fill="#000000" d="M 285.089844 267.0625 C 282.476562 264.453125 278.246094 264.453125 275.636719 267.0625 C 273.027344 269.667969 273.023438 273.898438 275.636719 276.507812 L 297.554688 298.40625 C 298.859375 299.710938 300.570312 300.359375 302.28125 300.359375 C 303.992188 300.359375 305.703125 299.710938 307.007812 298.40625 C 309.617188 295.796875 309.617188 291.570312 307.007812 288.960938 Z M 285.089844 267.0625 " fill-opacity="1" fill-rule="nonzero"/></svg>