<svg xmlns="http://www.w3.org/2000/svg" xmlns:xlink="http://www.w3.org/1999/xlink" width="500" zoomAndPan="magnify" viewBox="0 0 375 374.999991" height="500" preserveAspectRatio="xMidYMid meet" version="1.0"><defs><clipPath id="1e769723c0"><path d="M 37.5 37.5 L 337.5 37.5 L 337.5 337.5 L 37.5 337.5 Z M 37.5 37.5 " clip-rule="nonzero"/></clipPath><clipPath id="375b89776d"><path d="M 0.5 0.5 L 300.5 0.5 L 300.5 300.5 L 0.5 300.5 Z M 0.5 0.5 " clip-rule="nonzero"/></clipPath><clipPath id="4886f0f1c3"><rect x="0" width="301" y="0" height="301"/></clipPath><clipPath id="888a65ef17"><path d="M 65.25 37.5 L 309.75 37.5 L 309.75 337.5 L 65.25 337.5 Z M 65.25 37.5 " clip-rule="nonzero"/></clipPath></defs><rect x="-37.5" width="450" fill="#ffffff" y="-37.499999" height="449.999989" fill-opacity="1"/><rect x="-37.5" width="450" fill="#000000" y="-37.499999" height="449.999989" fill-opacity="1"/><g clip-path="url(#1e769723c0)"><g transform="matrix(1, 0, 0, 1, 37, 37)"><g clip-path="url(#4886f0f1c3)"><g clip-path="url(#375b89776d)"><path fill="#000000" d="M 0.5 0.5 L 300.5 0.5 L 300.5 300.5 L 0.5 300.5 Z M 0.5 0.5 " fill-opacity="1" fill-rule="nonzero"/></g></g></g></g><path fill="#ffffff" d="M 272.929688 69.210938 L 186.15625 69.210938 C 184.628906 69.210938 183.386719 70.449219 183.386719 71.976562 C 183.386719 73.503906 184.628906 74.746094 186.15625 74.746094 L 272.929688 74.746094 C 274.457031 74.746094 275.695312 73.503906 275.695312 71.976562 C 275.695312 70.449219 274.457031 69.210938 272.929688 69.210938 Z M 272.929688 69.210938 " fill-opacity="1" fill-rule="nonzero"/><path fill="#ffffff" d="M 272.929688 83.492188 L 186.15625 83.492188 C 184.628906 83.492188 183.386719 84.730469 183.386719 86.257812 C 183.386719 87.785156 184.628906 89.027344 186.15625 89.027344 L 272.929688 89.027344 C 274.457031 89.027344 275.695312 87.785156 275.695312 86.257812 C 275.695312 84.730469 274.457031 83.492188 272.929688 83.492188 Z M 272.929688 83.492188 " fill-opacity="1" fill-rule="nonzero"/><path fill="#ffffff" d="M 272.929688 97.78125 L 186.15625 97.78125 C 184.628906 97.78125 183.386719 99.023438 183.386719 100.550781 C 183.386719 102.078125 184.628906 103.316406 186.15625 103.316406 L 272.929688 103.316406 C 274.457031 103.316406 275.695312 102.078125 275.695312 100.550781 C 275.695312 99.023438 274.457031 97.78125 272.929688 97.78125 Z M 272.929688 97.78125 " fill-opacity="1" fill-rule="nonzero"/><path fill="#ffffff" d="M 277.210938 160.65625 L 95.09375 160.65625 C 93.566406 160.65625 92.324219 161.894531 92.324219 163.421875 C 92.324219 164.949219 93.566406 166.191406 95.09375 166.191406 L 277.210938 166.191406 C 278.738281 166.191406 279.980469 164.949219 279.980469 163.421875 C 279.980469 161.894531 278.738281 160.65625 277.210938 160.65625 Z M 277.210938 160.65625 " fill-opacity="1" fill-rule="nonzero"/><path fill="#ffffff" d="M 277.210938 189.933594 L 95.09375 189.933594 C 93.566406 189.933594 92.324219 191.175781 92.324219 192.703125 C 92.324219 194.230469 93.566406 195.46875 95.09375 195.46875 L 277.210938 195.46875 C 278.738281 195.46875 279.980469 194.230469 279.980469 192.703125 C 279.980469 191.175781 278.738281 189.933594 277.210938 189.933594 Z M 277.210938 189.933594 " fill-opacity="1" fill-rule="nonzero"/><path fill="#ffffff" d="M 277.210938 219.214844 L 95.09375 219.214844 C 93.566406 219.214844 92.324219 220.457031 92.324219 221.984375 C 92.324219 223.511719 93.566406 224.75 95.09375 224.75 L 277.210938 224.75 C 278.738281 224.75 279.980469 223.511719 279.980469 221.984375 C 279.980469 220.457031 278.738281 219.214844 277.210938 219.214844 Z M 277.210938 219.214844 " fill-opacity="1" fill-rule="nonzero"/><g clip-path="url(#888a65ef17)"><path fill="#ffffff" d="M 82.832031 337.445312 L 291.613281 337.445312 C 301.355469 337.445312 309.269531 329.53125 309.269531 319.789062 L 309.269531 55.210938 C 309.269531 45.46875 301.355469 37.554688 291.613281 37.554688 L 82.832031 37.554688 C 73.089844 37.554688 65.175781 45.46875 65.175781 55.210938 L 65.175781 319.789062 C 65.175781 329.53125 73.089844 337.445312 82.832031 337.445312 Z M 288.128906 65.894531 L 288.128906 106.632812 C 288.128906 110.007812 285.359375 112.777344 281.984375 112.777344 L 177.09375 112.777344 C 173.71875 112.777344 170.949219 110.007812 170.949219 106.632812 L 170.949219 65.894531 C 170.949219 62.519531 173.71875 59.75 177.09375 59.75 L 281.984375 59.75 C 285.359375 59.75 288.128906 62.519531 288.128906 65.894531 Z M 86.320312 63.402344 C 86.320312 61.410156 87.925781 59.75 89.972656 59.75 L 140.5625 59.75 C 142.609375 59.75 144.214844 61.410156 144.214844 63.402344 L 144.214844 109.125 C 144.214844 111.117188 142.609375 112.777344 140.5625 112.777344 L 89.972656 112.777344 C 87.925781 112.777344 86.320312 111.117188 86.320312 109.125 Z M 70.710938 134.75 L 303.734375 134.75 L 303.734375 279.382812 L 70.710938 279.382812 Z M 70.710938 284.917969 L 303.734375 284.917969 L 303.734375 319.789062 C 303.734375 326.484375 298.3125 331.910156 291.613281 331.910156 L 82.832031 331.910156 C 76.132812 331.910156 70.710938 326.484375 70.710938 319.789062 Z M 70.710938 284.917969 " fill-opacity="1" fill-rule="nonzero"/></g><path fill="#ffffff" d="M 92.8125 321.320312 C 94.339844 321.320312 95.578125 320.082031 95.578125 318.554688 L 95.578125 299.269531 C 95.578125 297.742188 94.339844 296.5 92.8125 296.5 C 91.285156 296.5 90.042969 297.742188 90.042969 299.269531 L 90.042969 318.554688 C 90.042969 320.082031 91.285156 321.320312 92.8125 321.320312 Z M 92.8125 321.320312 " fill-opacity="1" fill-rule="nonzero"/><path fill="#ffffff" d="M 105.402344 321.320312 C 106.933594 321.320312 108.171875 320.082031 108.171875 318.554688 L 108.171875 299.269531 C 108.171875 297.742188 106.933594 296.5 105.402344 296.5 C 103.875 296.5 102.636719 297.742188 102.636719 299.269531 L 102.636719 318.554688 C 102.636719 320.082031 103.875 321.320312 105.402344 321.320312 Z M 105.402344 321.320312 " fill-opacity="1" fill-rule="nonzero"/><path fill="#ffffff" d="M 117.992188 321.320312 C 119.519531 321.320312 120.757812 320.082031 120.757812 318.554688 L 120.757812 299.269531 C 120.757812 297.742188 119.519531 296.5 117.992188 296.5 C 116.464844 296.5 115.222656 297.742188 115.222656 299.269531 L 115.222656 318.554688 C 115.222656 320.082031 116.464844 321.320312 117.992188 321.320312 Z M 117.992188 321.320312 " fill-opacity="1" fill-rule="nonzero"/><path fill="#ffffff" d="M 143.167969 321.320312 C 144.699219 321.320312 145.9375 320.082031 145.9375 318.554688 L 145.9375 299.269531 C 145.9375 297.742188 144.699219 296.5 143.167969 296.5 C 141.640625 296.5 140.402344 297.742188 140.402344 299.269531 L 140.402344 318.554688 C 140.402344 320.082031 141.640625 321.320312 143.167969 321.320312 Z M 143.167969 321.320312 " fill-opacity="1" fill-rule="nonzero"/><path fill="#ffffff" d="M 168.34375 321.320312 C 169.871094 321.320312 171.109375 320.082031 171.109375 318.554688 L 171.109375 299.269531 C 171.109375 297.742188 169.871094 296.5 168.34375 296.5 C 166.816406 296.5 165.574219 297.742188 165.574219 299.269531 L 165.574219 318.554688 C 165.574219 320.082031 166.816406 321.320312 168.34375 321.320312 Z M 168.34375 321.320312 " fill-opacity="1" fill-rule="nonzero"/><path fill="#ffffff" d="M 180.929688 321.320312 C 182.457031 321.320312 183.699219 320.082031 183.699219 318.554688 L 183.699219 299.269531 C 183.699219 297.742188 182.457031 296.5 180.929688 296.5 C 179.402344 296.5 178.164062 297.742188 178.164062 299.269531 L 178.164062 318.554688 C 178.164062 320.082031 179.402344 321.320312 180.929688 321.320312 Z M 180.929688 321.320312 " fill-opacity="1" fill-rule="nonzero"/><path fill="#ffffff" d="M 193.515625 321.320312 C 195.042969 321.320312 196.285156 320.082031 196.285156 318.554688 L 196.285156 299.269531 C 196.285156 297.742188 195.042969 296.5 193.515625 296.5 C 191.988281 296.5 190.75 297.742188 190.75 299.269531 L 190.75 318.554688 C 190.75 320.082031 191.988281 321.320312 193.515625 321.320312 Z M 193.515625 321.320312 " fill-opacity="1" fill-rule="nonzero"/><path fill="#ffffff" d="M 206.101562 321.320312 C 207.632812 321.320312 208.871094 320.082031 208.871094 318.554688 L 208.871094 299.269531 C 208.871094 297.742188 207.632812 296.5 206.101562 296.5 C 204.574219 296.5 203.335938 297.742188 203.335938 299.269531 L 203.335938 318.554688 C 203.335938 320.082031 204.574219 321.320312 206.101562 321.320312 Z M 206.101562 321.320312 " fill-opacity="1" fill-rule="nonzero"/><path fill="#ffffff" d="M 218.695312 321.320312 C 220.222656 321.320312 221.464844 320.082031 221.464844 318.554688 L 221.464844 299.269531 C 221.464844 297.742188 220.222656 296.5 218.695312 296.5 C 217.167969 296.5 215.929688 297.742188 215.929688 299.269531 L 215.929688 318.554688 C 215.929688 320.082031 217.167969 321.320312 218.695312 321.320312 Z M 218.695312 321.320312 " fill-opacity="1" fill-rule="nonzero"/><path fill="#ffffff" d="M 256.457031 321.320312 C 257.984375 321.320312 259.222656 320.082031 259.222656 318.554688 L 259.222656 299.269531 C 259.222656 297.742188 257.984375 296.5 256.457031 296.5 C 254.929688 296.5 253.6875 297.742188 253.6875 299.269531 L 253.6875 318.554688 C 253.6875 320.082031 254.929688 321.320312 256.457031 321.320312 Z M 256.457031 321.320312 " fill-opacity="1" fill-rule="nonzero"/><path fill="#ffffff" d="M 269.042969 321.320312 C 270.570312 321.320312 271.808594 320.082031 271.808594 318.554688 L 271.808594 299.269531 C 271.808594 297.742188 270.570312 296.5 269.042969 296.5 C 267.515625 296.5 266.273438 297.742188 266.273438 299.269531 L 266.273438 318.554688 C 266.273438 320.082031 267.515625 321.320312 269.042969 321.320312 Z M 269.042969 321.320312 " fill-opacity="1" fill-rule="nonzero"/><path fill="#ffffff" d="M 281.632812 321.320312 C 283.164062 321.320312 284.402344 320.082031 284.402344 318.554688 L 284.402344 299.269531 C 284.402344 297.742188 283.164062 296.5 281.632812 296.5 C 280.105469 296.5 278.867188 297.742188 278.867188 299.269531 L 278.867188 318.554688 C 278.867188 320.082031 280.105469 321.320312 281.632812 321.320312 Z M 281.632812 321.320312 " fill-opacity="1" fill-rule="nonzero"/><path fill="#ffffff" d="M 275.300781 242.335938 C 272.839844 243.953125 271.84375 246.476562 270.964844 248.695312 C 270.492188 249.890625 270.042969 251.019531 269.433594 251.84375 C 267.460938 254.5 263.085938 254.898438 258.648438 254.929688 C 255.851562 255.011719 253.699219 254.335938 253.460938 253.40625 C 253.371094 253.0625 253.449219 252.464844 253.523438 251.828125 C 253.578125 251.351562 253.636719 250.871094 253.65625 250.394531 C 253.777344 247.542969 252.398438 245.226562 250.15625 244.484375 C 248.800781 244.046875 247.324219 244.695312 246.746094 246.003906 C 244.800781 250.476562 241.183594 254.300781 236.832031 256.5 C 235.578125 257.132812 234.300781 257.140625 234.117188 257.140625 C 234.070312 256.949219 234.164062 256.351562 234.226562 255.953125 C 234.421875 254.691406 234.6875 252.96875 233.664062 251.273438 C 233.179688 250.472656 232.324219 249.96875 231.382812 249.933594 C 230.46875 249.867188 229.554688 250.351562 229.019531 251.113281 C 227.320312 253.550781 224.1875 254.945312 221.175781 254.730469 L 221.320312 245.015625 C 221.335938 243.886719 220.664062 242.863281 219.625 242.425781 C 218.597656 241.980469 217.382812 242.214844 216.59375 243.015625 C 210.132812 249.488281 203.695312 255.332031 195.992188 255.769531 C 194.464844 255.859375 193.300781 257.164062 193.382812 258.6875 C 193.472656 260.214844 194.785156 261.367188 196.300781 261.292969 C 203.773438 260.867188 210.015625 256.667969 215.679688 251.558594 L 215.613281 255.863281 C 215.605469 256.382812 215.585938 257.605469 216.488281 258.664062 C 217.265625 259.582031 218.292969 259.832031 218.691406 259.933594 C 222.089844 260.746094 225.707031 260.164062 228.742188 258.53125 C 228.78125 258.691406 228.835938 258.851562 228.890625 259.011719 C 229.410156 260.445312 230.5 261.558594 231.953125 262.132812 C 232.792969 262.464844 233.691406 262.605469 234.585938 262.605469 C 236.3125 262.605469 238.035156 262.085938 239.308594 261.4375 C 242.679688 259.738281 245.644531 257.339844 248.003906 254.441406 C 248.027344 254.546875 248.046875 254.652344 248.074219 254.757812 C 248.625 256.910156 250.761719 260.507812 258.664062 260.464844 C 262.609375 260.441406 269.964844 260.390625 273.859375 255.148438 C 274.902344 253.742188 275.535156 252.148438 276.09375 250.738281 C 276.753906 249.066406 277.328125 247.628906 278.324219 246.96875 C 279.601562 246.128906 279.957031 244.410156 279.121094 243.136719 C 278.285156 241.859375 276.570312 241.511719 275.292969 242.339844 Z M 275.300781 242.335938 " fill-opacity="1" fill-rule="nonzero"/></svg>