<svg xmlns="http://www.w3.org/2000/svg" xmlns:xlink="http://www.w3.org/1999/xlink" width="500" zoomAndPan="magnify" viewBox="0 0 375 374.999991" height="500" preserveAspectRatio="xMidYMid meet" version="1.0"><defs><g/><clipPath id="25b9d8a555"><rect x="0" width="349" y="0" height="73"/></clipPath></defs><g transform="matrix(1, 0, 0, 1, 14, 151)"><g clip-path="url(#25b9d8a555)"><g fill="#b6b5b5" fill-opacity="1"><g transform="translate(0.968529, 57.527797)"><g><path d="M 41.265625 0 L 41.140625 -21.8125 L 30.5625 -4.0625 L 25.390625 -4.0625 L 14.875 -21.21875 L 14.875 0 L 4.109375 0 L 4.109375 -41.140625 L 13.703125 -41.140625 L 28.15625 -17.40625 L 42.265625 -41.140625 L 51.84375 -41.140625 L 51.96875 0 Z M 41.265625 0 "/></g></g></g><g fill="#b6b5b5" fill-opacity="1"><g transform="translate(51.160019, 57.527797)"><g><path d="M 4.109375 -41.140625 L 15.75 -41.140625 L 15.75 -9.234375 L 35.390625 -9.234375 L 35.390625 0 L 4.109375 0 Z M 4.109375 -41.140625 "/></g></g></g><g fill="#b6b5b5" fill-opacity="1"><g transform="translate(81.133565, 57.527797)"><g><path d="M 15.75 -32.15625 L 15.75 -23.09375 L 33.921875 -23.09375 L 33.921875 -14.109375 L 15.75 -14.109375 L 15.75 0 L 4.109375 0 L 4.109375 -41.140625 L 36.390625 -41.140625 L 36.390625 -32.15625 Z M 15.75 -32.15625 "/></g></g></g><g fill="#b6b5b5" fill-opacity="1"><g transform="translate(112.987845, 57.527797)"><g><path d="M 31.6875 -8 L 14.28125 -8 L 11.046875 0 L -0.828125 0 L 17.34375 -41.140625 L 28.796875 -41.140625 L 47.03125 0 L 34.921875 0 Z M 28.28125 -16.578125 L 22.984375 -29.75 L 17.6875 -16.578125 Z M 28.28125 -16.578125 "/></g></g></g><g fill="#b6b5b5" fill-opacity="1"><g transform="translate(153.30546, 57.527797)"><g><path d="M 31.6875 -21.453125 L 41.96875 -21.453125 L 41.96875 -4.40625 C 39.613281 -2.71875 36.90625 -1.421875 33.84375 -0.515625 C 30.789062 0.378906 27.738281 0.828125 24.6875 0.828125 C 20.375 0.828125 16.492188 -0.0820312 13.046875 -1.90625 C 9.597656 -3.726562 6.894531 -6.265625 4.9375 -9.515625 C 2.976562 -12.773438 2 -16.460938 2 -20.578125 C 2 -24.691406 2.976562 -28.375 4.9375 -31.625 C 6.894531 -34.875 9.617188 -37.410156 13.109375 -39.234375 C 16.597656 -41.054688 20.535156 -41.96875 24.921875 -41.96875 C 28.765625 -41.96875 32.210938 -41.320312 35.265625 -40.03125 C 38.328125 -38.738281 40.875 -36.878906 42.90625 -34.453125 L 35.5 -27.75 C 32.71875 -30.800781 29.390625 -32.328125 25.515625 -32.328125 C 21.984375 -32.328125 19.140625 -31.257812 16.984375 -29.125 C 14.828125 -26.988281 13.75 -24.140625 13.75 -20.578125 C 13.75 -18.304688 14.238281 -16.273438 15.21875 -14.484375 C 16.195312 -12.703125 17.566406 -11.3125 19.328125 -10.3125 C 21.097656 -9.3125 23.117188 -8.8125 25.390625 -8.8125 C 27.628906 -8.8125 29.726562 -9.265625 31.6875 -10.171875 Z M 31.6875 -21.453125 "/></g></g></g><g fill="#b6b5b5" fill-opacity="1"><g transform="translate(192.682696, 57.527797)"><g><path d="M 37.15625 -9 L 37.15625 0 L 4.109375 0 L 4.109375 -41.140625 L 36.390625 -41.140625 L 36.390625 -32.15625 L 15.640625 -32.15625 L 15.640625 -25.21875 L 33.921875 -25.21875 L 33.921875 -16.515625 L 15.640625 -16.515625 L 15.640625 -9 Z M 37.15625 -9 "/></g></g></g><g fill="#b6b5b5" fill-opacity="1"><g transform="translate(226.300188, 57.527797)"><g><path d="M 43.265625 -41.140625 L 43.265625 0 L 33.6875 0 L 15.515625 -21.921875 L 15.515625 0 L 4.109375 0 L 4.109375 -41.140625 L 13.703125 -41.140625 L 31.859375 -19.21875 L 31.859375 -41.140625 Z M 43.265625 -41.140625 "/></g></g></g><g fill="#b6b5b5" fill-opacity="1"><g transform="translate(267.793234, 57.527797)"><g><path d="M 24.625 0.828125 C 20.3125 0.828125 16.441406 -0.0820312 13.015625 -1.90625 C 9.585938 -3.726562 6.894531 -6.265625 4.9375 -9.515625 C 2.976562 -12.773438 2 -16.460938 2 -20.578125 C 2 -24.691406 2.976562 -28.375 4.9375 -31.625 C 6.894531 -34.875 9.585938 -37.410156 13.015625 -39.234375 C 16.441406 -41.054688 20.3125 -41.96875 24.625 -41.96875 C 28.382812 -41.96875 31.773438 -41.300781 34.796875 -39.96875 C 37.816406 -38.632812 40.328125 -36.710938 42.328125 -34.203125 L 34.921875 -27.515625 C 32.253906 -30.722656 29.019531 -32.328125 25.21875 -32.328125 C 22.976562 -32.328125 20.988281 -31.835938 19.25 -30.859375 C 17.507812 -29.878906 16.15625 -28.5 15.1875 -26.71875 C 14.226562 -24.9375 13.75 -22.890625 13.75 -20.578125 C 13.75 -18.265625 14.226562 -16.210938 15.1875 -14.421875 C 16.15625 -12.640625 17.507812 -11.257812 19.25 -10.28125 C 20.988281 -9.300781 22.976562 -8.8125 25.21875 -8.8125 C 29.019531 -8.8125 32.253906 -10.421875 34.921875 -13.640625 L 42.328125 -6.9375 C 40.328125 -4.425781 37.816406 -2.503906 34.796875 -1.171875 C 31.773438 0.160156 28.382812 0.828125 24.625 0.828125 Z M 24.625 0.828125 "/></g></g></g><g fill="#b6b5b5" fill-opacity="1"><g transform="translate(305.289749, 57.527797)"><g><path d="M 26.15625 -14.75 L 26.15625 0 L 14.515625 0 L 14.515625 -14.9375 L -1.171875 -41.140625 L 11.109375 -41.140625 L 20.875 -24.8125 L 30.625 -41.140625 L 41.90625 -41.140625 Z M 26.15625 -14.75 "/></g></g></g></g></g></svg>