<svg xmlns="http://www.w3.org/2000/svg" xmlns:xlink="http://www.w3.org/1999/xlink" width="500" zoomAndPan="magnify" viewBox="0 0 375 374.999991" height="500" preserveAspectRatio="xMidYMid meet" version="1.0"><defs><clipPath id="ac0a3c3b31"><path d="M 57.210938 57.210938 L 317.789062 57.210938 L 317.789062 317.789062 L 57.210938 317.789062 Z M 57.210938 57.210938 " clip-rule="nonzero"/></clipPath><clipPath id="f36da4f03b"><path d="M 187.5 57.210938 C 115.542969 57.210938 57.210938 115.542969 57.210938 187.5 C 57.210938 259.457031 115.542969 317.789062 187.5 317.789062 C 259.457031 317.789062 317.789062 259.457031 317.789062 187.5 C 317.789062 115.542969 259.457031 57.210938 187.5 57.210938 Z M 187.5 57.210938 " clip-rule="nonzero"/></clipPath><clipPath id="6b8763a0b6"><path d="M 0.210938 0.210938 L 260.789062 0.210938 L 260.789062 260.789062 L 0.210938 260.789062 Z M 0.210938 0.210938 " clip-rule="nonzero"/></clipPath><clipPath id="bcf0ac1060"><path d="M 130.5 0.210938 C 58.542969 0.210938 0.210938 58.542969 0.210938 130.5 C 0.210938 202.457031 58.542969 260.789062 130.5 260.789062 C 202.457031 260.789062 260.789062 202.457031 260.789062 130.5 C 260.789062 58.542969 202.457031 0.210938 130.5 0.210938 Z M 130.5 0.210938 " clip-rule="nonzero"/></clipPath><clipPath id="be321eea87"><rect x="0" width="261" y="0" height="261"/></clipPath><clipPath id="085bf00bec"><path d="M 112.5 112.5 L 262.5 112.5 L 262.5 262.5 L 112.5 262.5 Z M 112.5 112.5 " clip-rule="nonzero"/></clipPath><clipPath id="035ebc7a8d"><path d="M 112.5 141.75 L 112.5 233.25 C 112.5 249.40625 125.59375 262.5 141.75 262.5 L 233.25 262.5 C 249.40625 262.5 262.5 249.40625 262.5 233.25 L 262.5 141.75 C 262.5 125.59375 249.40625 112.5 233.25 112.5 L 141.75 112.5 C 125.59375 112.5 112.5 125.59375 112.5 141.75 Z M 112.5 141.75 " clip-rule="nonzero"/></clipPath><clipPath id="c72978dc32"><path d="M 161 161 L 214 161 L 214 214 L 161 214 Z M 161 161 " clip-rule="nonzero"/></clipPath><clipPath id="6a4fa4ec2f"><path d="M 112.5 141.75 L 112.5 233.25 C 112.5 249.40625 125.59375 262.5 141.75 262.5 L 233.25 262.5 C 249.40625 262.5 262.5 249.40625 262.5 233.25 L 262.5 141.75 C 262.5 125.59375 249.40625 112.5 233.25 112.5 L 141.75 112.5 C 125.59375 112.5 112.5 125.59375 112.5 141.75 Z M 112.5 141.75 " clip-rule="nonzero"/></clipPath><clipPath id="bb85ad96b1"><path d="M 145 145 L 230 145 L 230 230 L 145 230 Z M 145 145 " clip-rule="nonzero"/></clipPath><clipPath id="be15d988dc"><path d="M 112.5 141.75 L 112.5 233.25 C 112.5 249.40625 125.59375 262.5 141.75 262.5 L 233.25 262.5 C 249.40625 262.5 262.5 249.40625 262.5 233.25 L 262.5 141.75 C 262.5 125.59375 249.40625 112.5 233.25 112.5 L 141.75 112.5 C 125.59375 112.5 112.5 125.59375 112.5 141.75 Z M 112.5 141.75 " clip-rule="nonzero"/></clipPath><clipPath id="edb7c3101f"><path d="M 137 137 L 158 137 L 158 148 L 137 148 Z M 137 137 " clip-rule="nonzero"/></clipPath><clipPath id="cb89032d09"><path d="M 112.5 141.75 L 112.5 233.25 C 112.5 249.40625 125.59375 262.5 141.75 262.5 L 233.25 262.5 C 249.40625 262.5 262.5 249.40625 262.5 233.25 L 262.5 141.75 C 262.5 125.59375 249.40625 112.5 233.25 112.5 L 141.75 112.5 C 125.59375 112.5 112.5 125.59375 112.5 141.75 Z M 112.5 141.75 " clip-rule="nonzero"/></clipPath></defs><g clip-path="url(#ac0a3c3b31)"><g clip-path="url(#f36da4f03b)"><g transform="matrix(1, 0, 0, 1, 57, 57)"><g clip-path="url(#be321eea87)"><g clip-path="url(#6b8763a0b6)"><g clip-path="url(#bcf0ac1060)"><path fill="#000000" d="M 0.210938 0.210938 L 260.789062 0.210938 L 260.789062 260.789062 L 0.210938 260.789062 Z M 0.210938 0.210938 " fill-opacity="1" fill-rule="nonzero"/></g></g></g></g></g></g><g clip-path="url(#085bf00bec)"><g clip-path="url(#035ebc7a8d)"><path fill="#ffffff" d="M 220.734375 262.5 L 154.265625 262.5 C 131.324219 262.5 112.5 243.675781 112.5 220.734375 L 112.5 154.265625 C 112.5 131.324219 131.324219 112.5 154.265625 112.5 L 220.734375 112.5 C 243.675781 112.5 262.5 131.324219 262.5 154.265625 L 262.5 220.734375 C 262.5 243.675781 243.675781 262.5 220.734375 262.5 Z M 154.265625 121.910156 C 136.617188 121.910156 121.910156 136.617188 121.910156 154.265625 L 121.910156 220.734375 C 121.910156 238.382812 136.617188 253.089844 154.265625 253.089844 L 220.734375 253.089844 C 238.382812 253.089844 253.089844 238.382812 253.089844 220.734375 L 253.089844 154.265625 C 253.089844 136.617188 238.382812 121.910156 220.734375 121.910156 Z M 154.265625 121.910156 " fill-opacity="1" fill-rule="evenodd"/></g></g><g clip-path="url(#c72978dc32)"><g clip-path="url(#6a4fa4ec2f)"><path fill="#ffffff" d="M 187.5 213.382812 C 173.382812 213.382812 161.617188 201.617188 161.617188 187.5 C 161.617188 173.382812 173.382812 161.617188 187.5 161.617188 C 201.617188 161.617188 213.382812 173.382812 213.382812 187.5 C 213.382812 201.617188 201.617188 213.382812 187.5 213.382812 Z M 187.5 171.03125 C 178.382812 171.03125 171.03125 178.382812 171.03125 187.5 C 171.03125 196.617188 178.382812 203.96875 187.5 203.96875 C 196.617188 203.96875 203.96875 196.617188 203.96875 187.5 C 203.96875 178.382812 196.617188 171.03125 187.5 171.03125 Z M 187.5 171.03125 " fill-opacity="1" fill-rule="evenodd"/></g></g><g clip-path="url(#bb85ad96b1)"><g clip-path="url(#be15d988dc)"><path fill="#ffffff" d="M 187.5 229.851562 C 164.265625 229.851562 145.148438 210.734375 145.148438 187.5 C 145.148438 164.265625 164.265625 145.148438 187.5 145.148438 C 210.734375 145.148438 229.851562 164.265625 229.851562 187.5 C 229.851562 210.734375 210.734375 229.851562 187.5 229.851562 Z M 187.5 154.558594 C 169.265625 154.558594 154.558594 169.265625 154.558594 187.5 C 154.558594 205.734375 169.265625 220.441406 187.5 220.441406 C 205.734375 220.441406 220.441406 205.734375 220.441406 187.5 C 220.441406 169.265625 205.734375 154.558594 187.5 154.558594 Z M 187.5 154.558594 " fill-opacity="1" fill-rule="evenodd"/></g></g><g clip-path="url(#edb7c3101f)"><g clip-path="url(#cb89032d09)"><path fill="#ffffff" d="M 152.792969 147.207031 L 142.5 147.207031 C 139.851562 147.207031 137.792969 145.148438 137.792969 142.5 C 137.792969 139.851562 139.851562 137.792969 142.5 137.792969 L 152.792969 137.792969 C 155.441406 137.792969 157.5 139.851562 157.5 142.5 C 157.5 145.148438 155.441406 147.207031 152.792969 147.207031 Z M 152.792969 147.207031 " fill-opacity="1" fill-rule="evenodd"/></g></g></svg>