<svg xmlns="http://www.w3.org/2000/svg" xmlns:xlink="http://www.w3.org/1999/xlink" width="500" zoomAndPan="magnify" viewBox="0 0 375 374.999991" height="500" preserveAspectRatio="xMidYMid meet" version="1.0"><defs><clipPath id="6378d85d94"><path d="M 57.210938 57.210938 L 317.789062 57.210938 L 317.789062 317.789062 L 57.210938 317.789062 Z M 57.210938 57.210938 " clip-rule="nonzero"/></clipPath><clipPath id="f8b2b411f6"><path d="M 187.5 57.210938 C 115.542969 57.210938 57.210938 115.542969 57.210938 187.5 C 57.210938 259.457031 115.542969 317.789062 187.5 317.789062 C 259.457031 317.789062 317.789062 259.457031 317.789062 187.5 C 317.789062 115.542969 259.457031 57.210938 187.5 57.210938 Z M 187.5 57.210938 " clip-rule="nonzero"/></clipPath><clipPath id="ad355604c0"><path d="M 0.210938 0.210938 L 260.789062 0.210938 L 260.789062 260.789062 L 0.210938 260.789062 Z M 0.210938 0.210938 " clip-rule="nonzero"/></clipPath><clipPath id="bc8858a618"><path d="M 130.5 0.210938 C 58.542969 0.210938 0.210938 58.542969 0.210938 130.5 C 0.210938 202.457031 58.542969 260.789062 130.5 260.789062 C 202.457031 260.789062 260.789062 202.457031 260.789062 130.5 C 260.789062 58.542969 202.457031 0.210938 130.5 0.210938 Z M 130.5 0.210938 " clip-rule="nonzero"/></clipPath><clipPath id="895d466505"><rect x="0" width="261" y="0" height="261"/></clipPath><clipPath id="0eb0294128"><path d="M 30.113281 30.113281 L 345 30.113281 L 345 345 L 30.113281 345 Z M 30.113281 30.113281 " clip-rule="nonzero"/></clipPath><clipPath id="852e51da6b"><path d="M 30.113281 59.363281 L 30.113281 315.636719 C 30.113281 331.792969 43.207031 344.886719 59.363281 344.886719 L 315.636719 344.886719 C 331.792969 344.886719 344.886719 331.792969 344.886719 315.636719 L 344.886719 59.363281 C 344.886719 43.207031 331.792969 30.113281 315.636719 30.113281 L 59.363281 30.113281 C 43.207031 30.113281 30.113281 43.207031 30.113281 59.363281 Z M 30.113281 59.363281 " clip-rule="nonzero"/></clipPath><clipPath id="cadaca939f"><path d="M 133 133 L 242 133 L 242 242 L 133 242 Z M 133 133 " clip-rule="nonzero"/></clipPath><clipPath id="486f39e444"><path d="M 30.113281 59.363281 L 30.113281 315.636719 C 30.113281 331.792969 43.207031 344.886719 59.363281 344.886719 L 315.636719 344.886719 C 331.792969 344.886719 344.886719 331.792969 344.886719 315.636719 L 344.886719 59.363281 C 344.886719 43.207031 331.792969 30.113281 315.636719 30.113281 L 59.363281 30.113281 C 43.207031 30.113281 30.113281 43.207031 30.113281 59.363281 Z M 30.113281 59.363281 " clip-rule="nonzero"/></clipPath><clipPath id="55b57ee57e"><path d="M 98 98 L 277 98 L 277 277 L 98 277 Z M 98 98 " clip-rule="nonzero"/></clipPath><clipPath id="4641c8f655"><path d="M 30.113281 59.363281 L 30.113281 315.636719 C 30.113281 331.792969 43.207031 344.886719 59.363281 344.886719 L 315.636719 344.886719 C 331.792969 344.886719 344.886719 331.792969 344.886719 315.636719 L 344.886719 59.363281 C 344.886719 43.207031 331.792969 30.113281 315.636719 30.113281 L 59.363281 30.113281 C 43.207031 30.113281 30.113281 43.207031 30.113281 59.363281 Z M 30.113281 59.363281 " clip-rule="nonzero"/></clipPath><clipPath id="6d6aa5ab18"><path d="M 83 83 L 125 83 L 125 103 L 83 103 Z M 83 83 " clip-rule="nonzero"/></clipPath><clipPath id="a2d98f242d"><path d="M 30.113281 59.363281 L 30.113281 315.636719 C 30.113281 331.792969 43.207031 344.886719 59.363281 344.886719 L 315.636719 344.886719 C 331.792969 344.886719 344.886719 331.792969 344.886719 315.636719 L 344.886719 59.363281 C 344.886719 43.207031 331.792969 30.113281 315.636719 30.113281 L 59.363281 30.113281 C 43.207031 30.113281 30.113281 43.207031 30.113281 59.363281 Z M 30.113281 59.363281 " clip-rule="nonzero"/></clipPath></defs><g clip-path="url(#6378d85d94)"><g clip-path="url(#f8b2b411f6)"><g transform="matrix(1, 0, 0, 1, 57, 57)"><g clip-path="url(#895d466505)"><g clip-path="url(#ad355604c0)"><g clip-path="url(#bc8858a618)"><path fill="#000000" d="M 0.210938 0.210938 L 260.789062 0.210938 L 260.789062 260.789062 L 0.210938 260.789062 Z M 0.210938 0.210938 " fill-opacity="1" fill-rule="nonzero"/></g></g></g></g></g></g><g clip-path="url(#0eb0294128)"><g clip-path="url(#852e51da6b)"><path fill="#ffffff" d="M 257.238281 344.878906 L 117.753906 344.878906 C 69.613281 344.878906 30.113281 305.378906 30.113281 257.238281 L 30.113281 117.753906 C 30.113281 69.613281 69.613281 30.113281 117.753906 30.113281 L 257.238281 30.113281 C 305.378906 30.113281 344.878906 69.613281 344.878906 117.753906 L 344.878906 257.238281 C 344.878906 305.378906 305.378906 344.878906 257.238281 344.878906 Z M 117.753906 49.863281 C 80.722656 49.863281 49.863281 80.722656 49.863281 117.753906 L 49.863281 257.238281 C 49.863281 294.269531 80.722656 325.128906 117.753906 325.128906 L 257.238281 325.128906 C 294.269531 325.128906 325.128906 294.269531 325.128906 257.238281 L 325.128906 117.753906 C 325.128906 80.722656 294.269531 49.863281 257.238281 49.863281 Z M 117.753906 49.863281 " fill-opacity="1" fill-rule="evenodd"/></g></g><g clip-path="url(#cadaca939f)"><g clip-path="url(#486f39e444)"><path fill="#ffffff" d="M 187.496094 241.808594 C 157.871094 241.808594 133.183594 217.121094 133.183594 187.496094 C 133.183594 157.871094 157.871094 133.183594 187.496094 133.183594 C 217.121094 133.183594 241.808594 157.871094 241.808594 187.496094 C 241.808594 217.121094 217.121094 241.808594 187.496094 241.808594 Z M 187.496094 152.933594 C 168.363281 152.933594 152.933594 168.363281 152.933594 187.496094 C 152.933594 206.628906 168.363281 222.058594 187.496094 222.058594 C 206.628906 222.058594 222.058594 206.628906 222.058594 187.496094 C 222.058594 168.363281 206.628906 152.933594 187.496094 152.933594 Z M 187.496094 152.933594 " fill-opacity="1" fill-rule="evenodd"/></g></g><g clip-path="url(#55b57ee57e)"><g clip-path="url(#4641c8f655)"><path fill="#ffffff" d="M 187.496094 276.371094 C 138.738281 276.371094 98.621094 236.253906 98.621094 187.496094 C 98.621094 138.738281 138.738281 98.621094 187.496094 98.621094 C 236.253906 98.621094 276.371094 138.738281 276.371094 187.496094 C 276.371094 236.253906 236.253906 276.371094 187.496094 276.371094 Z M 187.496094 118.371094 C 149.230469 118.371094 118.371094 149.230469 118.371094 187.496094 C 118.371094 225.761719 149.230469 256.621094 187.496094 256.621094 C 225.761719 256.621094 256.621094 225.761719 256.621094 187.496094 C 256.621094 149.230469 225.761719 118.371094 187.496094 118.371094 Z M 187.496094 118.371094 " fill-opacity="1" fill-rule="evenodd"/></g></g><g clip-path="url(#6d6aa5ab18)"><g clip-path="url(#a2d98f242d)"><path fill="#ffffff" d="M 114.667969 102.941406 L 93.066406 102.941406 C 87.511719 102.941406 83.191406 98.621094 83.191406 93.066406 C 83.191406 87.511719 87.511719 83.191406 93.066406 83.191406 L 114.667969 83.191406 C 120.222656 83.191406 124.542969 87.511719 124.542969 93.066406 C 124.542969 98.621094 120.222656 102.941406 114.667969 102.941406 Z M 114.667969 102.941406 " fill-opacity="1" fill-rule="evenodd"/></g></g></svg>