<svg xmlns="http://www.w3.org/2000/svg" xmlns:xlink="http://www.w3.org/1999/xlink" width="500" zoomAndPan="magnify" viewBox="0 0 375 374.999991" height="500" preserveAspectRatio="xMidYMid meet" version="1.0"><defs><clipPath id="aa9b156d2e"><path d="M 37.5 37.5 L 337.5 37.5 L 337.5 337.5 L 37.5 337.5 Z M 37.5 37.5 " clip-rule="nonzero"/></clipPath><clipPath id="8d309e73e5"><path d="M 0.5 0.5 L 300.5 0.5 L 300.5 300.5 L 0.5 300.5 Z M 0.5 0.5 " clip-rule="nonzero"/></clipPath><clipPath id="187b01c203"><rect x="0" width="301" y="0" height="301"/></clipPath></defs><rect x="-37.5" width="450" fill="#ffffff" y="-37.499999" height="449.999989" fill-opacity="1"/><rect x="-37.5" width="450" fill="#000000" y="-37.499999" height="449.999989" fill-opacity="1"/><g clip-path="url(#aa9b156d2e)"><g transform="matrix(1, 0, 0, 1, 37, 37)"><g clip-path="url(#187b01c203)"><g clip-path="url(#8d309e73e5)"><path fill="#000000" d="M 0.5 0.5 L 300.5 0.5 L 300.5 300.5 L 0.5 300.5 Z M 0.5 0.5 " fill-opacity="1" fill-rule="nonzero"/></g></g></g></g><path fill="#ffffff" d="M 187.453125 0.03125 C 291.015625 0.03125 374.96875 83.960938 374.96875 187.523438 C 374.96875 291.082031 291.015625 375.039062 187.453125 375.039062 C 83.894531 375.039062 -0.03125 291.082031 -0.03125 187.523438 C -0.03125 83.960938 83.902344 0.03125 187.453125 0.03125 Z M 241.925781 54.863281 L 102.976562 54.863281 C 96.9375 54.863281 94.425781 63.046875 94.425781 68.941406 L 94.425781 81.398438 L 238.117188 81.398438 L 238.140625 68.175781 C 238.246094 63.578125 239.390625 58.710938 241.925781 54.863281 Z M 134.4375 226.550781 L 113.429688 286.507812 L 123.382812 293.738281 C 145.320312 315.292969 148.621094 319.738281 169.941406 341.0625 C 178.449219 349.566406 188.773438 339.976562 185.761719 335.894531 L 168.726562 319.589844 C 167.40625 318.335938 167.371094 316.253906 168.621094 314.953125 C 169.875 313.636719 171.960938 313.613281 173.28125 314.871094 L 192.710938 333.472656 L 196.835938 337.214844 C 202.304688 342.023438 213.628906 332.113281 208.808594 327.351562 L 189.375 308.753906 C 188.078125 307.5 188.03125 305.414062 189.292969 304.117188 C 190.546875 302.796875 192.628906 302.761719 193.925781 304.011719 L 213.359375 322.636719 C 218.78125 327.800781 229.304688 316.828125 224.265625 311.835938 C 224.21875 311.789062 224.183594 311.753906 224.136719 311.707031 L 204.726562 293.128906 C 203.429688 291.878906 203.386719 289.792969 204.644531 288.496094 C 205.898438 287.175781 207.984375 287.136719 209.28125 288.390625 L 228.691406 306.96875 C 228.773438 307.027344 228.839844 307.09375 228.898438 307.175781 C 234.089844 312.367188 243.953125 301.417969 240.277344 297.734375 L 213.300781 270.921875 C 205.175781 262.84375 198.203125 260.332031 189.53125 266.203125 C 176.609375 274.964844 164.65625 274.09375 156.832031 269.84375 C 152.199219 267.335938 148.222656 263.121094 147.261719 258.195312 C 146.453125 254.011719 147.878906 250.050781 152.128906 247.5 L 173.011719 235.101562 Z M 110.476562 275.070312 L 129.503906 220.746094 C 130.117188 218.984375 129.164062 217.003906 127.460938 216.449219 L 109.433594 210.136719 C 108.050781 209.683594 107.09375 209.113281 105.609375 209.835938 C 104.820312 210.21875 104.203125 210.878906 103.882812 211.746094 L 80.324219 278.96875 C 79.734375 280.710938 80.648438 282.644531 82.386719 283.265625 L 101.671875 290.011719 C 103.410156 290.625 105.34375 289.710938 105.96875 287.949219 Z M 237.609375 226.515625 L 257.976562 284.683594 L 243.839844 292.042969 L 217.925781 266.273438 C 207.554688 255.960938 197.289062 253.050781 185.851562 260.789062 C 175.371094 267.890625 165.976562 267.359375 159.976562 264.082031 C 155.46875 261.636719 150.984375 255.832031 155.46875 253.175781 L 182.144531 237.300781 L 183.335938 236.40625 L 183.335938 236.429688 C 187.328125 233.871094 224.8125 228.765625 237.609375 226.515625 Z M 257.976562 284.675781 L 255.511719 277.640625 M 242.691406 210.164062 L 261.699219 203.511719 C 263.039062 203.046875 264.398438 202.875 265.71875 202.980469 C 272.160156 146.511719 281.535156 61.941406 252.921875 54.886719 C 251.625 54.757812 249.710938 55.882812 248.714844 56.878906 C 245.804688 59.773438 244.71875 64.726562 244.71875 68.933594 L 244.71875 84.667969 C 244.71875 86.496094 243.234375 87.960938 241.425781 87.960938 L 118.851562 87.960938 C 125.167969 119.296875 116.453125 168.21875 113.789062 204.699219 L 129.375 210.15625 C 133.648438 211.476562 136.515625 215.765625 136.246094 220.253906 L 181.183594 230.183594 C 187.175781 227.78125 205.035156 225.015625 220.238281 222.660156 C 226.101562 221.746094 231.546875 220.921875 235.800781 220.171875 C 235.566406 215.859375 238.011719 212.113281 242.113281 210.367188 C 242.308594 210.292969 242.476562 210.210938 242.691406 210.164062 Z M 263.863281 209.699219 L 244.582031 216.457031 C 242.84375 217.050781 241.925781 219.007812 242.542969 220.753906 L 265.035156 284.976562 C 265.84375 287.015625 265.996094 288.996094 267.796875 289.867188 C 268.582031 290.25 269.496094 290.332031 270.390625 290.015625 L 289.648438 283.273438 C 291.390625 282.660156 292.304688 280.726562 291.710938 278.976562 L 268.15625 211.753906 C 267.539062 210.015625 265.613281 209.078125 263.863281 209.699219 Z M 244.394531 105.351562 L 182.0625 105.351562 L 182.0625 122.386719 L 244.394531 122.386719 Z M 178.761719 98.78125 L 247.6875 98.78125 C 249.496094 98.78125 250.964844 100.253906 250.964844 102.074219 L 250.964844 125.65625 C 250.964844 127.484375 249.496094 128.949219 247.6875 128.949219 L 178.761719 128.949219 C 176.953125 128.949219 175.46875 127.476562 175.46875 125.65625 L 175.46875 102.074219 C 175.46875 100.253906 176.953125 98.78125 178.761719 98.78125 Z M 155.863281 206.550781 C 158.113281 204.234375 160.140625 199.539062 161.113281 191.476562 C 154.824219 192.066406 148.65625 198.960938 150.335938 204.71875 C 151.125 207.382812 153.316406 209.203125 155.863281 206.550781 Z M 138.03125 187.476562 C 137.566406 191.773438 131.03125 191.046875 131.503906 186.757812 C 135.546875 150.464844 167.578125 147.382812 168.285156 175.933594 C 168.367188 179.484375 168.328125 182.738281 168.15625 185.714844 C 170.070312 186.269531 172.003906 187.074219 174.023438 188.136719 C 174.703125 188.496094 175.214844 189.074219 175.492188 189.734375 L 178.875 197.347656 L 183.234375 187.253906 C 184.449219 184.484375 188.332031 184.726562 189.335938 187.449219 L 194.96875 202.925781 L 212.851562 202.925781 C 217.183594 202.925781 217.183594 209.519531 212.851562 209.519531 L 192.675781 209.519531 L 192.675781 209.496094 C 191.332031 209.496094 190.078125 208.664062 189.59375 207.351562 L 185.976562 197.421875 L 182.023438 206.609375 C 180.855469 209.632812 177.03125 209.414062 175.90625 206.863281 L 169.972656 193.46875 C 169.140625 193.066406 168.335938 192.726562 167.574219 192.449219 C 163.808594 221.128906 147.164062 217.175781 144.058594 206.585938 C 141.105469 196.53125 150.585938 185.21875 161.664062 184.859375 C 161.789062 182.226562 161.8125 179.308594 161.730469 176.121094 C 161.203125 154.785156 140.960938 161.160156 138.03125 187.476562 Z M 188.203125 167.941406 C 183.890625 167.941406 183.890625 161.347656 188.203125 161.347656 L 247.476562 161.347656 C 251.8125 161.347656 251.8125 167.941406 247.476562 167.941406 Z M 136.246094 147.195312 C 131.933594 147.195312 131.933594 140.601562 136.246094 140.601562 L 247.6875 140.601562 C 252 140.601562 252 147.195312 247.6875 147.195312 Z M 163.921875 118.957031 C 168.253906 118.957031 168.253906 125.550781 163.921875 125.550781 L 136.238281 125.550781 C 131.925781 125.550781 131.925781 118.957031 136.238281 118.957031 Z M 163.921875 102.210938 C 168.253906 102.210938 168.253906 108.78125 163.921875 108.78125 L 136.238281 108.78125 C 131.925781 108.78125 131.925781 102.210938 136.238281 102.210938 Z M 204.765625 188.691406 C 200.429688 188.691406 200.429688 182.101562 204.765625 182.101562 L 247.6875 182.101562 C 252 182.101562 252 188.691406 247.6875 188.691406 Z M 204.765625 188.691406 " fill-opacity="1" fill-rule="evenodd"/></svg>