<svg xmlns="http://www.w3.org/2000/svg" xmlns:xlink="http://www.w3.org/1999/xlink" width="500" zoomAndPan="magnify" viewBox="0 0 375 374.999991" height="500" preserveAspectRatio="xMidYMid meet" version="1.0"><defs><clipPath id="ccc6395932"><path d="M 187.5 0 C 83.945312 0 0 83.945312 0 187.5 C 0 291.054688 83.945312 375 187.5 375 C 291.054688 375 375 291.054688 375 187.5 C 375 83.945312 291.054688 0 187.5 0 Z M 187.5 0 " clip-rule="nonzero"/></clipPath><clipPath id="8d37c25a6e"><path d="M 0 0 L 375 0 L 375 375 L 0 375 Z M 0 0 " clip-rule="nonzero"/></clipPath><clipPath id="0794c83218"><path d="M 187.5 0 C 83.945312 0 0 83.945312 0 187.5 C 0 291.054688 83.945312 375 187.5 375 C 291.054688 375 375 291.054688 375 187.5 C 375 83.945312 291.054688 0 187.5 0 Z M 187.5 0 " clip-rule="nonzero"/></clipPath><clipPath id="deca6c8349"><rect x="0" width="375" y="0" height="375"/></clipPath><clipPath id="936f95f668"><path d="M 39.167969 174 L 79 174 L 79 186 L 39.167969 186 Z M 39.167969 174 " clip-rule="nonzero"/></clipPath><clipPath id="34e0204062"><path d="M 297 174 L 336.167969 174 L 336.167969 186 L 297 186 Z M 297 174 " clip-rule="nonzero"/></clipPath><clipPath id="15519a855b"><path d="M 181 31.773438 L 194 31.773438 L 194 71 L 181 71 Z M 181 31.773438 " clip-rule="nonzero"/></clipPath></defs><rect x="-37.5" width="450" fill="#ffffff" y="-37.499999" height="449.999989" fill-opacity="1"/><rect x="-37.5" width="450" fill="#000000" y="-37.499999" height="449.999989" fill-opacity="1"/><g clip-path="url(#ccc6395932)"><g transform="matrix(1, 0, 0, 1, 0, 0)"><g clip-path="url(#deca6c8349)"><g clip-path="url(#8d37c25a6e)"><g clip-path="url(#0794c83218)"><rect x="-82.5" width="540" fill="#ffffff" height="539.999987" y="-82.499998" fill-opacity="1"/></g></g></g></g></g><path fill="#000000" d="M 160.863281 196.652344 C 154.351562 194.0625 146.972656 197.234375 144.382812 203.730469 C 141.789062 210.230469 144.964844 217.597656 151.476562 220.183594 C 157.984375 222.773438 165.363281 219.601562 167.957031 213.101562 C 170.546875 206.605469 167.371094 199.238281 160.863281 196.652344 Z M 160.863281 196.652344 " fill-opacity="1" fill-rule="nonzero"/><path fill="#000000" d="M 151.019531 286.0625 C 150.988281 286.203125 151.015625 286.332031 151.019531 286.480469 L 151.019531 299.425781 L 224.316406 299.425781 C 224.316406 299.425781 224.316406 286.480469 224.316406 286.480469 C 224.324219 286.332031 224.347656 286.199219 224.355469 286.054688 C 224.316406 286.0625 151.019531 286.0625 151.019531 286.0625 Z M 151.019531 286.0625 " fill-opacity="1" fill-rule="nonzero"/><path fill="#000000" d="M 187.667969 342.945312 C 200.382812 342.945312 211.496094 336.574219 218.066406 326.878906 L 157.324219 326.878906 C 163.914062 336.574219 175.046875 342.945312 187.667969 342.945312 Z M 187.667969 342.945312 " fill-opacity="1" fill-rule="nonzero"/><path fill="#000000" d="M 205.714844 158.582031 C 209.300781 149.59375 204.90625 139.40625 195.902344 135.824219 C 186.898438 132.246094 176.6875 136.628906 173.101562 145.621094 C 169.515625 154.609375 173.910156 164.796875 182.914062 168.378906 C 191.921875 171.957031 202.128906 167.574219 205.714844 158.582031 Z M 205.714844 158.582031 " fill-opacity="1" fill-rule="nonzero"/><path fill="#000000" d="M 219.945312 200.0625 C 213.4375 197.472656 206.058594 200.644531 203.464844 207.144531 C 200.871094 213.640625 204.046875 221.007812 210.558594 223.59375 C 217.070312 226.183594 224.449219 223.011719 227.039062 216.515625 C 229.632812 210.015625 226.457031 202.652344 219.945312 200.0625 Z M 219.945312 200.0625 " fill-opacity="1" fill-rule="nonzero"/><path fill="#000000" d="M 151.027344 306.46875 C 151.039062 311.253906 151.992188 315.8125 153.679688 319.996094 C 153.945312 319.933594 154.195312 319.835938 154.480469 319.835938 L 220.859375 319.835938 C 221.152344 319.835938 221.417969 319.933594 221.691406 320.003906 C 223.367188 315.816406 224.316406 311.257812 224.316406 306.46875 Z M 151.027344 306.46875 " fill-opacity="1" fill-rule="nonzero"/><path fill="#000000" d="M 270.070312 175.375 C 267.511719 132.339844 230.863281 99.191406 187.675781 99.191406 C 144.492188 99.191406 107.828125 132.339844 105.269531 175.375 C 104.15625 194.070312 108.34375 207.300781 113.769531 219.332031 C 120.355469 233.925781 134.625 249.988281 140.378906 258.789062 C 143.742188 263.925781 148.222656 270.046875 150.113281 279.199219 C 150.410156 279.121094 150.699219 279.019531 151.019531 279.019531 L 224.316406 279.019531 C 224.640625 279.019531 224.929688 279.121094 225.222656 279.199219 C 227.113281 270.046875 231.597656 263.925781 234.957031 258.789062 C 240.714844 249.988281 254.984375 233.925781 261.566406 219.332031 C 266.996094 207.300781 271.179688 194.070312 270.070312 175.375 Z M 183.734375 211.664062 C 183.617188 212.679688 182.804688 213.476562 181.789062 213.597656 L 178.222656 214.019531 C 177.34375 214.125 176.617188 214.730469 176.320312 215.5625 C 176.230469 215.816406 176.136719 216.0625 176.035156 216.316406 C 175.9375 216.566406 175.832031 216.8125 175.722656 217.054688 C 175.367188 217.863281 175.476562 218.800781 176.042969 219.480469 L 178.339844 222.234375 C 178.996094 223.019531 179.035156 224.15625 178.425781 224.972656 C 177.835938 225.761719 177.210938 226.511719 176.550781 227.222656 C 175.859375 227.96875 174.734375 228.136719 173.84375 227.636719 L 170.707031 225.886719 C 169.941406 225.460938 169 225.511719 168.277344 226.007812 C 167.824219 226.320312 167.359375 226.613281 166.882812 226.890625 C 166.125 227.328125 165.675781 228.152344 165.734375 229.023438 L 165.96875 232.601562 C 166.039062 233.617188 165.402344 234.558594 164.425781 234.863281 C 163.496094 235.152344 162.546875 235.394531 161.589844 235.585938 C 160.585938 235.785156 159.578125 235.261719 159.148438 234.335938 L 157.644531 231.082031 C 157.277344 230.289062 156.484375 229.777344 155.609375 229.757812 C 155.058594 229.742188 154.507812 229.707031 153.957031 229.652344 C 153.085938 229.5625 152.238281 229.964844 151.769531 230.703125 L 149.859375 233.734375 C 149.316406 234.59375 148.25 234.984375 147.28125 234.660156 C 146.820312 234.507812 146.359375 234.339844 145.898438 234.15625 C 145.441406 233.976562 144.992188 233.78125 144.546875 233.574219 C 143.625 233.148438 143.121094 232.132812 143.316406 231.132812 L 144.015625 227.621094 C 144.1875 226.765625 143.847656 225.890625 143.152344 225.355469 C 142.714844 225.019531 142.289062 224.667969 141.882812 224.300781 C 141.226562 223.714844 140.304688 223.542969 139.488281 223.867188 L 136.15625 225.195312 C 135.207031 225.574219 134.113281 225.261719 133.523438 224.429688 C 132.957031 223.632812 132.433594 222.808594 131.957031 221.957031 C 131.457031 221.066406 131.648438 219.949219 132.398438 219.253906 L 135.03125 216.820312 C 135.675781 216.226562 135.914062 215.320312 135.667969 214.480469 C 135.511719 213.953125 135.375 213.421875 135.261719 212.882812 C 135.078125 212.027344 134.429688 211.34375 133.582031 211.132812 L 130.097656 210.25 C 129.105469 210 128.40625 209.109375 128.414062 208.089844 C 128.425781 207.121094 128.488281 206.144531 128.601562 205.171875 C 128.722656 204.15625 129.535156 203.359375 130.550781 203.238281 L 134.113281 202.816406 C 134.996094 202.710938 135.722656 202.105469 136.019531 201.273438 C 136.109375 201.019531 136.203125 200.769531 136.300781 200.519531 C 136.402344 200.273438 136.503906 200.023438 136.613281 199.78125 C 136.972656 198.972656 136.859375 198.035156 136.292969 197.355469 L 133.996094 194.601562 C 133.339844 193.816406 133.300781 192.679688 133.914062 191.863281 C 134.5 191.074219 135.125 190.324219 135.785156 189.613281 C 136.480469 188.867188 137.605469 188.699219 138.496094 189.199219 L 141.632812 190.949219 C 142.398438 191.375 143.335938 191.324219 144.058594 190.828125 C 144.511719 190.515625 144.980469 190.222656 145.457031 189.945312 C 146.214844 189.507812 146.664062 188.683594 146.605469 187.8125 L 146.367188 184.234375 C 146.300781 183.21875 146.933594 182.277344 147.910156 181.972656 C 148.839844 181.683594 149.789062 181.441406 150.75 181.25 C 151.753906 181.050781 152.761719 181.574219 153.191406 182.5 L 154.695312 185.753906 C 155.0625 186.546875 155.851562 187.058594 156.730469 187.078125 C 157.277344 187.09375 157.828125 187.128906 158.378906 187.183594 C 159.253906 187.273438 160.101562 186.871094 160.566406 186.132812 L 162.480469 183.101562 C 163.023438 182.242188 164.089844 181.851562 165.054688 182.175781 C 165.515625 182.328125 165.976562 182.496094 166.4375 182.679688 C 166.894531 182.859375 167.347656 183.054688 167.789062 183.261719 C 168.714844 183.691406 169.21875 184.703125 169.019531 185.703125 L 168.320312 189.214844 C 168.152344 190.074219 168.488281 190.945312 169.183594 191.480469 C 169.625 191.816406 170.046875 192.167969 170.457031 192.535156 C 171.109375 193.121094 172.035156 193.292969 172.847656 192.96875 L 176.179688 191.640625 C 177.128906 191.261719 178.222656 191.574219 178.816406 192.40625 C 179.378906 193.203125 179.902344 194.027344 180.378906 194.878906 C 180.878906 195.769531 180.691406 196.886719 179.941406 197.582031 L 177.304688 200.015625 C 176.664062 200.609375 176.421875 201.515625 176.671875 202.355469 C 176.828125 202.882812 176.960938 203.414062 177.078125 203.953125 C 177.261719 204.808594 177.90625 205.492188 178.757812 205.707031 L 182.242188 206.585938 C 183.230469 206.835938 183.933594 207.726562 183.921875 208.746094 C 183.910156 209.71875 183.851562 210.691406 183.734375 211.664062 Z M 183.324219 182.929688 L 180.679688 187.121094 C 179.925781 188.3125 178.453125 188.855469 177.117188 188.40625 C 176.476562 188.191406 175.839844 187.960938 175.203125 187.707031 C 174.570312 187.457031 173.945312 187.1875 173.335938 186.902344 C 172.054688 186.308594 171.355469 184.90625 171.632812 183.523438 L 172.597656 178.667969 C 172.832031 177.480469 172.363281 176.269531 171.402344 175.53125 C 170.796875 175.066406 170.207031 174.578125 169.644531 174.070312 C 168.742188 173.261719 167.460938 173.023438 166.335938 173.472656 L 161.726562 175.3125 C 160.414062 175.835938 158.898438 175.402344 158.082031 174.25 C 157.300781 173.148438 156.578125 172.007812 155.917969 170.832031 C 155.226562 169.601562 155.488281 168.050781 156.523438 167.09375 L 160.167969 163.726562 C 161.058594 162.902344 161.390625 161.648438 161.046875 160.488281 C 160.832031 159.761719 160.644531 159.023438 160.484375 158.277344 C 160.230469 157.09375 159.339844 156.152344 158.160156 155.851562 L 153.339844 154.632812 C 151.972656 154.289062 151 153.054688 151.015625 151.644531 C 151.03125 150.304688 151.117188 148.957031 151.277344 147.609375 C 151.441406 146.207031 152.5625 145.101562 153.96875 144.9375 L 158.898438 144.351562 C 160.117188 144.207031 161.125 143.371094 161.535156 142.214844 C 161.65625 141.871094 161.789062 141.523438 161.925781 141.175781 C 162.0625 140.832031 162.207031 140.488281 162.355469 140.152344 C 162.851562 139.035156 162.699219 137.738281 161.914062 136.796875 L 158.734375 132.988281 C 157.828125 131.902344 157.773438 130.332031 158.621094 129.199219 C 159.433594 128.109375 160.300781 127.074219 161.210938 126.089844 C 162.171875 125.054688 163.726562 124.824219 164.960938 125.511719 L 169.300781 127.933594 C 170.359375 128.527344 171.65625 128.457031 172.65625 127.769531 C 173.285156 127.339844 173.929688 126.933594 174.589844 126.550781 C 175.636719 125.941406 176.257812 124.804688 176.179688 123.597656 L 175.851562 118.652344 C 175.757812 117.242188 176.632812 115.9375 177.984375 115.519531 C 179.273438 115.117188 180.582031 114.785156 181.910156 114.519531 C 183.296875 114.242188 184.695312 114.96875 185.289062 116.25 L 187.367188 120.75 C 187.878906 121.847656 188.96875 122.550781 190.183594 122.582031 C 190.945312 122.601562 191.707031 122.652344 192.46875 122.730469 C 193.671875 122.855469 194.847656 122.296875 195.492188 121.273438 L 198.136719 117.082031 C 198.890625 115.890625 200.363281 115.351562 201.703125 115.796875 C 202.339844 116.011719 202.976562 116.246094 203.613281 116.496094 C 204.246094 116.75 204.871094 117.019531 205.484375 117.300781 C 206.761719 117.894531 207.460938 119.296875 207.183594 120.679688 L 206.21875 125.539062 C 205.984375 126.722656 206.453125 127.933594 207.414062 128.671875 C 208.023438 129.136719 208.609375 129.625 209.171875 130.128906 C 210.078125 130.941406 211.355469 131.179688 212.484375 130.730469 L 217.089844 128.894531 C 218.402344 128.367188 219.917969 128.800781 220.734375 129.953125 C 221.519531 131.054688 222.238281 132.199219 222.898438 133.371094 C 223.589844 134.605469 223.328125 136.152344 222.292969 137.113281 L 218.648438 140.480469 C 217.757812 141.300781 217.425781 142.554688 217.769531 143.714844 C 217.984375 144.441406 218.171875 145.179688 218.332031 145.925781 C 218.585938 147.109375 219.480469 148.050781 220.65625 148.347656 L 225.476562 149.570312 C 226.84375 149.914062 227.816406 151.148438 227.800781 152.558594 C 227.785156 153.898438 227.703125 155.246094 227.542969 156.59375 C 227.375 157.996094 226.253906 159.101562 224.847656 159.265625 L 219.917969 159.851562 C 218.699219 159.996094 217.695312 160.832031 217.285156 161.988281 C 217.160156 162.332031 217.03125 162.679688 216.890625 163.027344 C 216.753906 163.371094 216.609375 163.714844 216.460938 164.050781 C 215.964844 165.167969 216.121094 166.464844 216.902344 167.40625 L 220.082031 171.214844 C 220.988281 172.300781 221.042969 173.871094 220.199219 175.003906 C 219.386719 176.09375 218.519531 177.128906 217.605469 178.113281 C 216.644531 179.148438 215.089844 179.378906 213.859375 178.691406 L 209.519531 176.265625 C 208.460938 175.675781 207.160156 175.746094 206.164062 176.433594 C 205.53125 176.863281 204.890625 177.273438 204.230469 177.652344 C 203.179688 178.261719 202.558594 179.398438 202.640625 180.605469 L 202.96875 185.550781 C 203.0625 186.960938 202.183594 188.265625 200.835938 188.683594 C 199.546875 189.085938 198.234375 189.417969 196.90625 189.683594 C 195.519531 189.960938 194.125 189.234375 193.53125 187.953125 L 191.449219 183.453125 C 190.941406 182.355469 189.847656 181.652344 188.632812 181.621094 C 187.875 181.601562 187.113281 181.550781 186.351562 181.472656 C 185.144531 181.347656 183.972656 181.90625 183.324219 182.929688 Z M 242.816406 215.078125 C 242.699219 216.089844 241.886719 216.886719 240.871094 217.007812 L 237.304688 217.429688 C 236.425781 217.535156 235.699219 218.140625 235.402344 218.972656 C 235.3125 219.226562 235.21875 219.476562 235.117188 219.726562 C 235.019531 219.976562 234.914062 220.222656 234.808594 220.464844 C 234.449219 221.273438 234.5625 222.214844 235.128906 222.890625 L 237.425781 225.644531 C 238.078125 226.429688 238.121094 227.566406 237.507812 228.386719 C 236.921875 229.171875 236.296875 229.921875 235.636719 230.632812 C 234.941406 231.382812 233.816406 231.546875 232.925781 231.050781 L 229.789062 229.296875 C 229.023438 228.871094 228.085938 228.921875 227.363281 229.417969 C 226.90625 229.730469 226.441406 230.023438 225.964844 230.300781 C 225.207031 230.738281 224.757812 231.5625 224.816406 232.433594 L 225.054688 236.011719 C 225.121094 237.027344 224.488281 237.96875 223.511719 238.273438 C 222.578125 238.5625 221.632812 238.804688 220.671875 238.996094 C 219.667969 239.195312 218.660156 238.671875 218.230469 237.746094 L 216.726562 234.496094 C 216.359375 233.699219 215.570312 233.191406 214.691406 233.167969 C 214.140625 233.152344 213.59375 233.121094 213.039062 233.0625 C 212.167969 232.972656 211.320312 233.375 210.855469 234.117188 L 208.941406 237.144531 C 208.398438 238.003906 207.332031 238.394531 206.367188 238.074219 C 205.90625 237.917969 205.441406 237.75 204.984375 237.566406 C 204.527344 237.386719 204.074219 237.191406 203.632812 236.988281 C 202.707031 236.558594 202.203125 235.542969 202.402344 234.546875 L 203.097656 231.03125 C 203.269531 230.175781 202.929688 229.300781 202.234375 228.765625 C 201.796875 228.429688 201.375 228.078125 200.964844 227.710938 C 200.3125 227.125 199.386719 226.953125 198.574219 227.277344 L 195.242188 228.605469 C 194.292969 228.984375 193.199219 228.675781 192.605469 227.839844 C 192.042969 227.042969 191.519531 226.21875 191.042969 225.367188 C 190.542969 224.476562 190.730469 223.359375 191.480469 222.664062 L 194.117188 220.230469 C 194.757812 219.636719 195 218.730469 194.75 217.890625 C 194.59375 217.363281 194.460938 216.832031 194.34375 216.292969 C 194.160156 215.4375 193.515625 214.757812 192.664062 214.542969 L 189.179688 213.660156 C 188.191406 213.410156 187.488281 212.519531 187.5 211.5 C 187.511719 210.53125 187.570312 209.554688 187.6875 208.582031 C 187.804688 207.566406 188.617188 206.769531 189.632812 206.648438 L 193.199219 206.226562 C 194.078125 206.121094 194.804688 205.515625 195.101562 204.683594 C 195.191406 204.433594 195.285156 204.183594 195.386719 203.933594 C 195.484375 203.679688 195.589844 203.433594 195.695312 203.191406 C 196.054688 202.382812 195.945312 201.445312 195.375 200.765625 L 193.078125 198.011719 C 192.425781 197.226562 192.382812 196.089844 192.996094 195.273438 C 193.582031 194.484375 194.210938 193.734375 194.871094 193.023438 C 195.5625 192.277344 196.6875 192.109375 197.578125 192.609375 L 200.714844 194.359375 C 201.480469 194.785156 202.421875 194.734375 203.144531 194.238281 C 203.597656 193.925781 204.0625 193.632812 204.539062 193.359375 C 205.296875 192.917969 205.746094 192.09375 205.6875 191.222656 L 205.453125 187.648438 C 205.382812 186.628906 206.019531 185.6875 206.992188 185.382812 C 207.925781 185.09375 208.871094 184.851562 209.832031 184.660156 C 210.835938 184.460938 211.84375 184.984375 212.273438 185.914062 L 213.777344 189.164062 C 214.144531 189.960938 214.9375 190.46875 215.8125 190.488281 C 216.363281 190.503906 216.914062 190.539062 217.464844 190.59375 C 218.335938 190.6875 219.183594 190.28125 219.652344 189.542969 L 221.5625 186.511719 C 222.105469 185.652344 223.171875 185.261719 224.136719 185.585938 C 224.601562 185.738281 225.0625 185.90625 225.519531 186.089844 C 225.980469 186.273438 226.429688 186.464844 226.871094 186.671875 C 227.796875 187.097656 228.300781 188.113281 228.101562 189.113281 L 227.40625 192.625 C 227.234375 193.484375 227.574219 194.359375 228.269531 194.890625 C 228.707031 195.226562 229.132812 195.578125 229.539062 195.945312 C 230.191406 196.53125 231.117188 196.703125 231.933594 196.378906 L 235.261719 195.050781 C 236.214844 194.671875 237.308594 194.984375 237.898438 195.816406 C 238.464844 196.613281 238.988281 197.441406 239.460938 198.289062 C 239.960938 199.179688 239.773438 200.300781 239.023438 200.992188 L 236.390625 203.425781 C 235.746094 204.019531 235.503906 204.925781 235.753906 205.765625 C 235.910156 206.292969 236.046875 206.824219 236.160156 207.363281 C 236.34375 208.21875 236.992188 208.902344 237.839844 209.117188 L 241.324219 209.996094 C 242.316406 210.246094 243.015625 211.136719 243.007812 212.15625 C 242.996094 213.128906 242.933594 214.101562 242.820312 215.074219 Z M 242.816406 215.078125 " fill-opacity="1" fill-rule="nonzero"/><g clip-path="url(#936f95f668)"><path fill="#000000" d="M 72.332031 174.203125 L 45.050781 174.203125 C 41.804688 174.203125 39.167969 176.828125 39.167969 180.070312 C 39.167969 183.3125 41.804688 185.941406 45.050781 185.941406 L 72.332031 185.941406 C 75.578125 185.941406 78.210938 183.3125 78.210938 180.070312 C 78.210938 176.828125 75.578125 174.203125 72.332031 174.203125 Z M 72.332031 174.203125 " fill-opacity="1" fill-rule="nonzero"/></g><g clip-path="url(#34e0204062)"><path fill="#000000" d="M 330.289062 174.203125 L 303.007812 174.203125 C 299.761719 174.203125 297.125 176.828125 297.125 180.070312 C 297.125 183.3125 299.761719 185.941406 303.007812 185.941406 L 330.289062 185.941406 C 333.535156 185.941406 336.167969 183.3125 336.167969 180.070312 C 336.167969 176.828125 333.535156 174.203125 330.289062 174.203125 Z M 330.289062 174.203125 " fill-opacity="1" fill-rule="nonzero"/></g><g clip-path="url(#15519a855b)"><path fill="#000000" d="M 187.667969 70.808594 C 190.917969 70.808594 193.550781 68.179688 193.550781 64.9375 L 193.550781 37.707031 C 193.550781 34.464844 190.917969 31.835938 187.667969 31.835938 C 184.421875 31.835938 181.785156 34.464844 181.785156 37.707031 L 181.785156 64.9375 C 181.785156 68.179688 184.421875 70.808594 187.667969 70.808594 Z M 187.667969 70.808594 " fill-opacity="1" fill-rule="nonzero"/></g><path fill="#000000" d="M 101.953125 257.328125 L 82.664062 276.585938 C 80.367188 278.878906 80.367188 282.597656 82.664062 284.886719 C 83.8125 286.035156 85.320312 286.605469 86.824219 286.605469 C 88.328125 286.605469 89.835938 286.035156 90.984375 284.886719 L 110.269531 265.632812 C 112.570312 263.339844 112.570312 259.621094 110.269531 257.328125 C 107.972656 255.035156 104.25 255.035156 101.953125 257.328125 Z M 101.953125 257.328125 " fill-opacity="1" fill-rule="nonzero"/><path fill="#000000" d="M 284.355469 75.253906 L 265.066406 94.507812 C 262.769531 96.800781 262.769531 100.519531 265.066406 102.8125 C 266.214844 103.957031 267.722656 104.53125 269.226562 104.53125 C 270.730469 104.53125 272.238281 103.957031 273.386719 102.8125 L 292.671875 83.554688 C 294.96875 81.261719 294.96875 77.546875 292.671875 75.253906 C 290.375 72.960938 286.652344 72.960938 284.355469 75.253906 Z M 284.355469 75.253906 " fill-opacity="1" fill-rule="nonzero"/><path fill="#000000" d="M 101.953125 102.8125 C 103.101562 103.957031 104.605469 104.53125 106.113281 104.53125 C 107.617188 104.53125 109.125 103.957031 110.269531 102.8125 C 112.570312 100.519531 112.570312 96.800781 110.269531 94.507812 L 90.984375 75.253906 C 88.6875 72.960938 84.960938 72.960938 82.664062 75.253906 C 80.367188 77.546875 80.367188 81.265625 82.664062 83.554688 Z M 101.953125 102.8125 " fill-opacity="1" fill-rule="nonzero"/><path fill="#000000" d="M 273.386719 257.328125 C 271.089844 255.035156 267.363281 255.035156 265.066406 257.328125 C 262.769531 259.621094 262.769531 263.339844 265.066406 265.632812 L 284.355469 284.886719 C 285.503906 286.035156 287.007812 286.605469 288.515625 286.605469 C 290.019531 286.605469 291.523438 286.035156 292.671875 284.886719 C 294.96875 282.59375 294.96875 278.878906 292.671875 276.585938 Z M 273.386719 257.328125 " fill-opacity="1" fill-rule="nonzero"/></svg>