<svg xmlns="http://www.w3.org/2000/svg" xmlns:xlink="http://www.w3.org/1999/xlink" width="500" zoomAndPan="magnify" viewBox="0 0 375 374.999991" height="500" preserveAspectRatio="xMidYMid meet" version="1.0"><defs><clipPath id="0a841a68dd"><path d="M 57.210938 57.210938 L 317.789062 57.210938 L 317.789062 317.789062 L 57.210938 317.789062 Z M 57.210938 57.210938 " clip-rule="nonzero"/></clipPath><clipPath id="f08637ab93"><path d="M 187.5 57.210938 C 115.542969 57.210938 57.210938 115.542969 57.210938 187.5 C 57.210938 259.457031 115.542969 317.789062 187.5 317.789062 C 259.457031 317.789062 317.789062 259.457031 317.789062 187.5 C 317.789062 115.542969 259.457031 57.210938 187.5 57.210938 Z M 187.5 57.210938 " clip-rule="nonzero"/></clipPath><clipPath id="0607ce089c"><path d="M 0.210938 0.210938 L 260.789062 0.210938 L 260.789062 260.789062 L 0.210938 260.789062 Z M 0.210938 0.210938 " clip-rule="nonzero"/></clipPath><clipPath id="740b2e9666"><path d="M 130.5 0.210938 C 58.542969 0.210938 0.210938 58.542969 0.210938 130.5 C 0.210938 202.457031 58.542969 260.789062 130.5 260.789062 C 202.457031 260.789062 260.789062 202.457031 260.789062 130.5 C 260.789062 58.542969 202.457031 0.210938 130.5 0.210938 Z M 130.5 0.210938 " clip-rule="nonzero"/></clipPath><clipPath id="fb5490398d"><rect x="0" width="261" y="0" height="261"/></clipPath><clipPath id="629af866ea"><path d="M 43.660156 43.660156 L 331.660156 43.660156 L 331.660156 331.660156 L 43.660156 331.660156 Z M 43.660156 43.660156 " clip-rule="nonzero"/></clipPath><clipPath id="110f291929"><path d="M 43.660156 72.910156 L 43.660156 302.089844 C 43.660156 318.242188 56.757812 331.339844 72.910156 331.339844 L 302.089844 331.339844 C 318.242188 331.339844 331.339844 318.242188 331.339844 302.089844 L 331.339844 72.910156 C 331.339844 56.757812 318.242188 43.660156 302.089844 43.660156 L 72.910156 43.660156 C 56.757812 43.660156 43.660156 56.757812 43.660156 72.910156 Z M 43.660156 72.910156 " clip-rule="nonzero"/></clipPath><clipPath id="24b9752ea6"><path d="M 137 137 L 238 137 L 238 238 L 137 238 Z M 137 137 " clip-rule="nonzero"/></clipPath><clipPath id="f82ac500b8"><path d="M 43.660156 72.910156 L 43.660156 302.089844 C 43.660156 318.242188 56.757812 331.339844 72.910156 331.339844 L 302.089844 331.339844 C 318.242188 331.339844 331.339844 318.242188 331.339844 302.089844 L 331.339844 72.910156 C 331.339844 56.757812 318.242188 43.660156 302.089844 43.660156 L 72.910156 43.660156 C 56.757812 43.660156 43.660156 56.757812 43.660156 72.910156 Z M 43.660156 72.910156 " clip-rule="nonzero"/></clipPath><clipPath id="e5b55d128f"><path d="M 106 106 L 269 106 L 269 269 L 106 269 Z M 106 106 " clip-rule="nonzero"/></clipPath><clipPath id="45dd564126"><path d="M 43.660156 72.910156 L 43.660156 302.089844 C 43.660156 318.242188 56.757812 331.339844 72.910156 331.339844 L 302.089844 331.339844 C 318.242188 331.339844 331.339844 318.242188 331.339844 302.089844 L 331.339844 72.910156 C 331.339844 56.757812 318.242188 43.660156 302.089844 43.660156 L 72.910156 43.660156 C 56.757812 43.660156 43.660156 56.757812 43.660156 72.910156 Z M 43.660156 72.910156 " clip-rule="nonzero"/></clipPath><clipPath id="2c84d1999f"><path d="M 92 92 L 130 92 L 130 111 L 92 111 Z M 92 92 " clip-rule="nonzero"/></clipPath><clipPath id="504a20176e"><path d="M 43.660156 72.910156 L 43.660156 302.089844 C 43.660156 318.242188 56.757812 331.339844 72.910156 331.339844 L 302.089844 331.339844 C 318.242188 331.339844 331.339844 318.242188 331.339844 302.089844 L 331.339844 72.910156 C 331.339844 56.757812 318.242188 43.660156 302.089844 43.660156 L 72.910156 43.660156 C 56.757812 43.660156 43.660156 56.757812 43.660156 72.910156 Z M 43.660156 72.910156 " clip-rule="nonzero"/></clipPath></defs><g clip-path="url(#0a841a68dd)"><g clip-path="url(#f08637ab93)"><g transform="matrix(1, 0, 0, 1, 57, 57)"><g clip-path="url(#fb5490398d)"><g clip-path="url(#0607ce089c)"><g clip-path="url(#740b2e9666)"><path fill="#000000" d="M 0.210938 0.210938 L 260.789062 0.210938 L 260.789062 260.789062 L 0.210938 260.789062 Z M 0.210938 0.210938 " fill-opacity="1" fill-rule="nonzero"/></g></g></g></g></g></g><g clip-path="url(#629af866ea)"><g clip-path="url(#110f291929)"><path fill="#ffffff" d="M 251.238281 331.332031 L 123.757812 331.332031 C 79.761719 331.332031 43.660156 295.234375 43.660156 251.238281 L 43.660156 123.757812 C 43.660156 79.761719 79.761719 43.660156 123.757812 43.660156 L 251.238281 43.660156 C 295.234375 43.660156 331.332031 79.761719 331.332031 123.757812 L 331.332031 251.238281 C 331.332031 295.234375 295.234375 331.332031 251.238281 331.332031 Z M 123.757812 61.710938 C 89.914062 61.710938 61.710938 89.914062 61.710938 123.757812 L 61.710938 251.238281 C 61.710938 285.082031 89.914062 313.285156 123.757812 313.285156 L 251.238281 313.285156 C 285.082031 313.285156 313.285156 285.082031 313.285156 251.238281 L 313.285156 123.757812 C 313.285156 89.914062 285.082031 61.710938 251.238281 61.710938 Z M 123.757812 61.710938 " fill-opacity="1" fill-rule="evenodd"/></g></g><g clip-path="url(#24b9752ea6)"><g clip-path="url(#f82ac500b8)"><path fill="#ffffff" d="M 187.496094 237.136719 C 160.421875 237.136719 137.859375 214.574219 137.859375 187.496094 C 137.859375 160.421875 160.421875 137.859375 187.496094 137.859375 C 214.574219 137.859375 237.136719 160.421875 237.136719 187.496094 C 237.136719 214.574219 214.574219 237.136719 187.496094 237.136719 Z M 187.496094 155.910156 C 170.011719 155.910156 155.910156 170.011719 155.910156 187.496094 C 155.910156 204.984375 170.011719 219.085938 187.496094 219.085938 C 204.984375 219.085938 219.085938 204.984375 219.085938 187.496094 C 219.085938 170.011719 204.984375 155.910156 187.496094 155.910156 Z M 187.496094 155.910156 " fill-opacity="1" fill-rule="evenodd"/></g></g><g clip-path="url(#e5b55d128f)"><g clip-path="url(#45dd564126)"><path fill="#ffffff" d="M 187.496094 268.722656 C 142.9375 268.722656 106.273438 232.058594 106.273438 187.496094 C 106.273438 142.9375 142.9375 106.273438 187.496094 106.273438 C 232.058594 106.273438 268.722656 142.9375 268.722656 187.496094 C 268.722656 232.058594 232.058594 268.722656 187.496094 268.722656 Z M 187.496094 124.324219 C 152.527344 124.324219 124.324219 152.527344 124.324219 187.496094 C 124.324219 222.46875 152.527344 250.671875 187.496094 250.671875 C 222.46875 250.671875 250.671875 222.46875 250.671875 187.496094 C 250.671875 152.527344 222.46875 124.324219 187.496094 124.324219 Z M 187.496094 124.324219 " fill-opacity="1" fill-rule="evenodd"/></g></g><g clip-path="url(#2c84d1999f)"><g clip-path="url(#504a20176e)"><path fill="#ffffff" d="M 120.9375 110.222656 L 101.195312 110.222656 C 96.121094 110.222656 92.171875 106.273438 92.171875 101.195312 C 92.171875 96.121094 96.121094 92.171875 101.195312 92.171875 L 120.9375 92.171875 C 126.015625 92.171875 129.964844 96.121094 129.964844 101.195312 C 129.964844 106.273438 126.015625 110.222656 120.9375 110.222656 Z M 120.9375 110.222656 " fill-opacity="1" fill-rule="evenodd"/></g></g></svg>
